<?xml version="1.0" standalone="no"?>
<svg>
<font id="Sevenish-Extra-Light" horiz-adv-x="27" >
<font-face units-per-em="100" ascent="80" descent="-20" />
<glyph unicode=" " horiz-adv-x="27" d="" />
<glyph unicode="!" horiz-adv-x="24.07241" d="M15.73145 4.5055 Q15.42359 3.77685 14.8644 3.20787 Q14.32126 2.6526 13.56678 2.34083 Q12.84091 2.04856 12.03613 2.03636 Q11.25371 2.02906 10.50547 2.34083 Q9.77971 2.63345 9.20784 3.20787 Q8.64954 3.75596 8.3408 4.5055 Q8.03435 5.22567 8.03633 6.03615 Q8.02935 6.81826 8.3408 7.56681 Q8.63312 8.29326 9.20784 8.86443 Q9.75598 9.42146 10.50547 9.73148 Q11.2264 10.03988 12.03613 10.03594 Q12.81614 10.04053 13.56678 9.73148 Q14.2974 9.44124 14.8644 8.86443 Q15.4164 8.31471 15.73145 7.56681 Q16.04513 6.84556 16.03592 6.03615 Q16.03969 5.23502 15.73145 4.5055 zM16 24 L12 20 L8 24 L8 94 L12 98 L16 94 L16 24 z" />
<glyph unicode="&#x22;" horiz-adv-x="44" d="M16 104 L16 84 L12 80 L8 84 L8 104 L12 108 L16 104 zM36 104 L36 84 L32 80 L28 84 L28 104 L32 108 L36 104 z" />
<glyph unicode="#" horiz-adv-x="108.18204" d="M42.11018 5.96407 L38 2 L34.11018 5.96407 L34.11018 25.96407 L38.11018 30.05869 L42.11018 25.96407 L42.11018 5.96407 zM30 38 L34.11018 34.05869 L30.11018 29.96407 L10 30 L6 34.09462 L10 38 L30 38 zM42.25629 42.07007 L38.14611 38.106 L34.25629 42.07007 L34.11018 57.96407 L38.11018 62.05869 L42.11018 57.96407 L42.25629 42.07007 zM30 69.90538 L34.11018 65.96407 L30.11018 61.86945 L10 61.90538 L6 66 L10 69.90538 L30 69.90538 zM42.29222 73.92814 L38.18204 69.96407 L34.29222 73.92814 L34 93.90538 L38 98 L42 93.90538 L42.29222 73.92814 zM61.88982 69.94131 L66 66 L62 61.90538 L46.11018 61.94131 L42.11018 66.03593 L46.11018 69.94131 L61.88982 69.94131 zM61.88982 38.03593 L66 34.09462 L62 30 L46.11018 30.03593 L42.11018 34.13055 L46.11018 38.03593 L61.88982 38.03593 zM74 6 L69.88982 2.03593 L66 6 L66 26 L70 30.09462 L74 26 L74 6 zM74.14611 42.106 L70.03593 38.14193 L66.14611 42.106 L66 58 L70 62.09462 L74 58 L74.14611 42.106 zM74.18204 73.96407 L70.07186 70 L66.18204 73.96407 L65.88982 93.94131 L69.88982 98.03593 L73.88982 93.94131 L74.18204 73.96407 zM97.88982 69.94131 L102 66 L98 61.90538 L77.88982 61.94131 L73.88982 66.03593 L77.88982 69.94131 L97.88982 69.94131 zM97.88982 38.03593 L102 34.09462 L98 30 L77.88982 30.03593 L73.88982 34.13055 L77.88982 38.03593 L97.88982 38.03593 z" />
<glyph unicode="$" horiz-adv-x="68" d="M48 10 L52 6 L48.11018 1.96407 L20 2 L16 6 L20 10 L48 10 zM60.03593 13.95269 L56.03593 9.95269 L52.03593 13.95269 L52.03593 41.95269 L56.03593 45.95269 L60.03593 41.95269 L60.03593 13.95269 zM47.88982 53.98862 L51.88982 49.98862 L48 45.95269 L19.88982 45.98862 L15.88982 49.98862 L19.88982 53.98862 L47.88982 53.98862 zM16 58.04731 L12 54.04731 L8 58.04731 L8 86.04731 L12 90.04731 L16 86.04731 L16 58.04731 zM47.88982 98.03593 L51.88982 94.03593 L48 90 L19.88982 90.03593 L15.88982 94.03593 L19.88982 98.03593 L47.88982 98.03593 zM60 76 L56 72 L52 76 L52 86 L56 90 L60 86 L60 76 zM16.14072 14 L12.14072 10 L8.14072 14 L8 24.26347 L12 28.26347 L16 24.26347 L16.14072 14 zM30 116 L34 120 L38 116 L38 106 L34 102 L30 106 L30 116 zM30 -6 L34 -2 L38 -6 L38 -16 L34 -20 L30 -16 L30 -6 z" />
<glyph unicode="%" horiz-adv-x="68" d="M19.73145 66.50545 Q19.42359 65.7768 18.8644 65.20782 Q18.32126 64.65255 17.56678 64.34078 Q16.84091 64.04851 16.03613 64.03631 Q15.25371 64.02901 14.50547 64.34078 Q13.77971 64.6334 13.20784 65.20782 Q12.64954 65.75591 12.3408 66.50545 Q12.03435 67.22562 12.03633 68.0361 Q12.02935 68.81821 12.3408 69.56676 Q12.63312 70.29321 13.20784 70.86438 Q13.75598 71.42141 14.50547 71.73143 Q15.2264 72.03983 16.03613 72.03589 Q16.81614 72.04048 17.56678 71.73143 Q18.2974 71.44119 18.8644 70.86438 Q19.4164 70.31466 19.73145 69.56676 Q20.04513 68.84551 20.03592 68.0361 Q20.03969 67.23497 19.73145 66.50545 zM55.73145 30.50545 Q55.42359 29.7768 54.8644 29.20782 Q54.32126 28.65255 53.56678 28.34078 Q52.84091 28.04851 52.03613 28.03631 Q51.25371 28.02901 50.50547 28.34078 Q49.77971 28.6334 49.20784 29.20782 Q48.64954 29.75591 48.3408 30.50545 Q48.03435 31.22562 48.03633 32.0361 Q48.02935 32.81821 48.3408 33.56676 Q48.63312 34.29321 49.20784 34.86438 Q49.75598 35.42141 50.50547 35.73143 Q51.2264 36.03983 52.03613 36.03589 Q52.81614 36.04048 53.56678 35.73143 Q54.2974 35.44119 54.8644 34.86438 Q55.4164 34.31466 55.73145 33.56676 Q56.04513 32.84551 56.03592 32.0361 Q56.03969 31.23497 55.73145 30.50545 zM12 22 L6 22 L6 28 L56 78 L62 78 L62 72 L12 22 z" />
<glyph unicode="&#x26;" horiz-adv-x="86" d="M28 6 L28 0 L22 0 L6 16 L6 22 L12 22 L28 6 zM48 22 L54 22 L54 16 L38 0 L32 0 L32 6 L48 22 zM54 32 L54 26 L48 26 L32 42 L32 48 L38 48 L54 32 zM74 48 L80 48 L80 42 L64 26 L58 26 L58 32 L74 48 zM28 58 L28 52 L22 52 L6 68 L6 74 L12 74 L28 58 zM48 74 L54 74 L54 68 L38 52 L32 52 L32 58 L48 74 zM54 84 L54 78 L48 78 L32 94 L32 100 L38 100 L54 84 zM22 100 L28 100 L28 94 L12 78 L6 78 L6 84 L22 100 zM80 6 L80 0 L74 0 L58 16 L58 22 L64 22 L80 6 zM22 48 L28 48 L28 42 L12 26 L6 26 L6 32 L22 48 z" />
<glyph unicode="'" horiz-adv-x="24" d="M16 104 L16 84 L12 80 L8 84 L8 104 L12 108 L16 104 z" />
<glyph unicode="(" horiz-adv-x="44" d="M16 14 L12 10 L8 14 L8 86 L12 90.04731 L16 86 L16 14 zM38 104 L24 90 L18 90 L18 96 L32 110 L38 110 L38 104 zM18 10 L24 10 L38 -4 L38 -10 L32 -10 L18 4 L18 10 z" />
<glyph unicode=")" horiz-adv-x="44" d="M28 86 L32 90.04731 L36 86 L36 14 L32 10 L28 14 L28 86 zM6 110 L12 110 L26 96 L26 90 L20 90 L6 104 L6 110 zM26 4 L12 -10 L6 -10 L6 -4 L20 10 L26 10 L26 4 z" />
<glyph unicode="*" horiz-adv-x="68" d="M40 62 L34 56 L28 62 L28 76 L34 82 L40 76 L40 62 zM47.26678 48.00186 L39.70634 51.8541 L43.55858 59.41454 L56.87337 63.74078 L64.43381 59.88854 L60.58157 52.3281 L47.26678 48.00186 zM36.19932 36.76808 L37.52671 45.14889 L45.90752 43.8215 L54.13652 32.49526 L52.80913 24.11445 L44.42831 25.44184 L36.19932 36.76808 zM22.09248 43.81851 L30.47329 45.1459 L31.80068 36.76508 L23.57169 25.43885 L15.19087 24.11146 L13.86348 32.49227 L22.09248 43.81851 zM40 62 L34 56 L28 62 L28 76 L34 82 L40 76 L40 62 zM24.44142 59.41454 L28.29366 51.8541 L20.73322 48.00186 L7.41843 52.3281 L3.56619 59.88854 L11.12663 63.74078 L24.44142 59.41454 z" />
<glyph unicode="+" horiz-adv-x="76" d="M42 22 L38 18 L34 22 L34 42 L38 46 L42 42 L42 22 zM30 54 L34 50 L30 46 L10 46 L6 50 L10 54 L30 54 zM42 58 L38 54 L34 58 L34 78 L38 82 L42 78 L42 58 zM66 54 L70 50 L66 46 L46 46 L42 50 L46 54 L66 54 z" />
<glyph unicode="," horiz-adv-x="32" d="M26 6 L12 -8 L6 -8 L6 -2 L20 12 L26 12 L26 6 z" />
<glyph unicode="-" horiz-adv-x="48" d="M38 54 L42 49.98862 L38 46 L10 46 L6 49.98862 L10 54 L38 54 z" />
<glyph unicode="." horiz-adv-x="24.07241" d="M15.73145 4.5055 Q15.42359 3.77685 14.8644 3.20787 Q14.32126 2.6526 13.56678 2.34083 Q12.84091 2.04856 12.03613 2.03636 Q11.25371 2.02906 10.50547 2.34083 Q9.77971 2.63345 9.20784 3.20787 Q8.64954 3.75596 8.3408 4.5055 Q8.03435 5.22567 8.03633 6.03615 Q8.02935 6.81826 8.3408 7.56681 Q8.63312 8.29326 9.20784 8.86443 Q9.75598 9.42146 10.50547 9.73148 Q11.2264 10.03988 12.03613 10.03594 Q12.81614 10.04053 13.56678 9.73148 Q14.2974 9.44124 14.8644 8.86443 Q15.4164 8.31471 15.73145 7.56681 Q16.04513 6.84556 16.03592 6.03615 Q16.03969 5.23502 15.73145 4.5055 z" />
<glyph unicode="/" horiz-adv-x="88" d="M82 82 L12 12 L6 12 L6 18 L76 88 L82 88 L82 82 z" />
<glyph unicode="0" horiz-adv-x="68" d="M48 10 L52 6 L48 2 L20 2 L16 6 L20 10 L48 10 zM16 14 L12 10 L8 14 L8 42 L12 46 L16 42 L16 14 zM60 14 L56 10 L52 14 L52 42 L56 46 L60 42 L60 14 zM16 58 L12 54 L8 58 L8 86 L12 90 L16 86 L16 58 zM60 58 L56 54 L52 58 L52 86 L56 90 L60 86 L60 58 zM48 98 L52 94 L48 90 L20 90 L16 94 L20 98 L48 98 z" />
<glyph unicode="1" horiz-adv-x="68" d="M60 14 L56 10 L52 14 L52 42 L56 46 L60 42 L60 14 zM60 58 L56 54 L52 58 L52 86 L56 90 L60 86 L60 58 z" />
<glyph unicode="2" horiz-adv-x="68" d="M48 10 L52 6 L48 2 L20 2 L16 6 L20 10 L48 10 zM16 14 L12 10 L8 14 L8 42 L12 46 L16 42 L16 14 zM48 54 L52 50 L48 46 L20 46 L16 50 L20 54 L48 54 zM60 58 L56 54 L52 58 L52 86 L56 90 L60 86 L60 58 zM48 98 L52 94 L48 90 L20 90 L16 94 L20 98 L48 98 z" />
<glyph unicode="3" horiz-adv-x="68" d="M48 10 L52 6 L48 2 L20 2 L16 6 L20 10 L48 10 zM60 14 L56 10 L52 14 L52 42 L56 46 L60 42 L60 14 zM48 54 L52 50 L48 46 L20 46 L16 50 L20 54 L48 54 zM60 58 L56 54 L52 58 L52 86 L56 90 L60 86 L60 58 zM48 98 L52 94 L48 90 L20 90 L16 94 L20 98 L48 98 z" />
<glyph unicode="4" horiz-adv-x="68" d="M60 14 L56 10 L52 14 L52 42 L56 46 L60 42 L60 14 zM48 54 L52 50 L48 46 L20 46 L16 50 L20 54 L48 54 zM16 58 L12 54 L8 58 L8 86 L12 90 L16 86 L16 58 zM60 58 L56 54 L52 58 L52 86 L56 90 L60 86 L60 58 z" />
<glyph unicode="5" horiz-adv-x="68" d="M48 10 L52 6 L48 2 L20 2 L16 6 L20 10 L48 10 zM60 14 L56 10 L52 14 L52 42 L56 46 L60 42 L60 14 zM48 54 L52 50 L48 46 L20 46 L16 50 L20 54 L48 54 zM16 58 L12 54 L8 58 L8 86 L12 90 L16 86 L16 58 zM48 98 L52 94 L48 90 L20 90 L16 94 L20 98 L48 98 z" />
<glyph unicode="6" horiz-adv-x="68" d="M48 10 L52 6 L48 2 L20 2 L16 6 L20 10 L48 10 zM16 14 L12 10 L8 14 L8 42 L12 46 L16 42 L16 14 zM60 14 L56 10 L52 14 L52 42 L56 46 L60 42 L60 14 zM48 54 L52 50 L48 46 L20 46 L16 50 L20 54 L48 54 zM16 58 L12 54 L8 58 L8 86 L12 90 L16 86 L16 58 zM48 98 L52 94 L48 90 L20 90 L16 94 L20 98 L48 98 z" />
<glyph unicode="7" horiz-adv-x="68" d="M60 14 L56 10 L52 14 L52 42 L56 46 L60 42 L60 14 zM60 58 L56 54 L52 58 L52 86 L56 90 L60 86 L60 58 zM48 98 L52 94 L48 90 L20 90 L16 94 L20 98 L48 98 z" />
<glyph unicode="8" horiz-adv-x="68" d="M48 10 L52 6 L48 2 L20 2 L16 6 L20 10 L48 10 zM16 14 L12 10 L8 14 L8 42 L12 46 L16 42 L16 14 zM60 14 L56 10 L52 14 L52 42 L56 46 L60 42 L60 14 zM48 54 L52 50 L48 46 L20 46 L16 50 L20 54 L48 54 zM16 58 L12 54 L8 58 L8 86 L12 90 L16 86 L16 58 zM60 58 L56 54 L52 58 L52 86 L56 90 L60 86 L60 58 zM48 98 L52 94 L48 90 L20 90 L16 94 L20 98 L48 98 z" />
<glyph unicode="9" horiz-adv-x="68" d="M48 10 L52 6 L48 2 L20 2 L16 6 L20 10 L48 10 zM60 14 L56 10 L52 14 L52 42 L56 46 L60 42 L60 14 zM48 54 L52 50 L48 46 L20 46 L16 50 L20 54 L48 54 zM16 58 L12 54 L8 58 L8 86 L12 90 L16 86 L16 58 zM60 58 L56 54 L52 58 L52 86 L56 90 L60 86 L60 58 zM48 98 L52 94 L48 90 L20 90 L16 94 L20 98 L48 98 z" />
<glyph unicode=":" horiz-adv-x="24.07241" d="M15.73145 26.50545 Q15.42359 25.7768 14.8644 25.20782 Q14.32126 24.65255 13.56678 24.34078 Q12.84091 24.04851 12.03613 24.03631 Q11.25371 24.02901 10.50547 24.34078 Q9.77971 24.6334 9.20784 25.20782 Q8.64954 25.75591 8.3408 26.50545 Q8.03435 27.22562 8.03633 28.0361 Q8.02935 28.81821 8.3408 29.56676 Q8.63312 30.29321 9.20784 30.86438 Q9.75598 31.42141 10.50547 31.73143 Q11.2264 32.03983 12.03613 32.03589 Q12.81614 32.04048 13.56678 31.73143 Q14.2974 31.44119 14.8644 30.86438 Q15.4164 30.31466 15.73145 29.56676 Q16.04513 28.84551 16.03592 28.0361 Q16.03969 27.23497 15.73145 26.50545 zM15.73145 70.50545 Q15.42359 69.7768 14.8644 69.20782 Q14.32126 68.65255 13.56678 68.34078 Q12.84091 68.04851 12.03613 68.03631 Q11.25371 68.02901 10.50547 68.34078 Q9.77971 68.6334 9.20784 69.20782 Q8.64954 69.75591 8.3408 70.50545 Q8.03435 71.22562 8.03633 72.0361 Q8.02935 72.81821 8.3408 73.56676 Q8.63312 74.29321 9.20784 74.86438 Q9.75598 75.42141 10.50547 75.73143 Q11.2264 76.03983 12.03613 76.03589 Q12.81614 76.04048 13.56678 75.73143 Q14.2974 75.44119 14.8644 74.86438 Q15.4164 74.31466 15.73145 73.56676 Q16.04513 72.84551 16.03592 72.0361 Q16.03969 71.23497 15.73145 70.50545 z" />
<glyph unicode=";" horiz-adv-x="32" d="M23.53145 70.50545 Q23.22359 69.7768 22.6644 69.20782 Q22.12126 68.65255 21.36678 68.34078 Q20.64091 68.04851 19.83613 68.03631 Q19.05371 68.02901 18.30547 68.34078 Q17.57971 68.6334 17.00784 69.20782 Q16.44954 69.75591 16.1408 70.50545 Q15.83435 71.22562 15.83633 72.0361 Q15.82935 72.81821 16.1408 73.56676 Q16.43312 74.29321 17.00784 74.86438 Q17.55598 75.42141 18.30547 75.73143 Q19.0264 76.03983 19.83613 76.03589 Q20.61614 76.04048 21.36678 75.73143 Q22.0974 75.44119 22.6644 74.86438 Q23.2164 74.31466 23.53145 73.56676 Q23.84513 72.84551 23.83592 72.0361 Q23.83969 71.23497 23.53145 70.50545 zM26 28 L12 14 L6 14 L6 20 L20 34 L26 34 L26 28 z" />
<glyph unicode="&#x3c;" horiz-adv-x="32" d="M26 28 L20 28 L6 42 L6 48 L12 48 L26 34 L26 28 zM26 66 L12 52 L6 52 L6 58 L20 72 L26 72 L26 66 z" />
<glyph unicode="=" horiz-adv-x="48" d="M38 38 L42 34 L38 30 L10 30 L6 34 L10 38 L38 38 zM38 70 L42 66 L38 62 L10 62 L6 66 L10 70 L38 70 z" />
<glyph unicode="&#x3e;" horiz-adv-x="32" d="M6 34 L20 48 L26 48 L26 42 L12 28 L6 28 L6 34 zM6 72 L12 72 L26 58 L26 52 L20 52 L6 66 L6 72 z" />
<glyph unicode="?" horiz-adv-x="68" d="M26 42 L30 46 L34 42 L34 24 L30 20 L26 24 L26 42 zM48 53.95269 L52.2509 49.98862 L48 46 L38 46 L34 50 L38 54 L48 53.95269 zM52.14072 86.04731 L56.14072 90.04731 L60.14072 86.04731 L60.14072 58.04731 L56.14072 54.04731 L52.14072 58.04731 L52.14072 86.04731 zM48 98 L52.2509 94.03593 L48 90.04731 L20.2509 90.03593 L16.2509 94.03593 L20.2509 98.03593 L48 98 zM8 86 L12 90 L16 86 L16 76 L12 72 L8 76 L8 86 zM33.73145 4.5055 Q33.42359 3.77685 32.8644 3.20787 Q32.32126 2.6526 31.56678 2.34083 Q30.84091 2.04856 30.03613 2.03636 Q29.25371 2.02906 28.50547 2.34083 Q27.77971 2.63345 27.20784 3.20787 Q26.64954 3.75596 26.3408 4.5055 Q26.03435 5.22567 26.03633 6.03615 Q26.02935 6.81826 26.3408 7.56681 Q26.63312 8.29326 27.20784 8.86443 Q27.75598 9.42146 28.50547 9.73148 Q29.2264 10.03988 30.03613 10.03594 Q30.81614 10.04053 31.56678 9.73148 Q32.2974 9.44124 32.8644 8.86443 Q33.4164 8.31471 33.73145 7.56681 Q34.04513 6.84556 34.03592 6.03615 Q34.03969 5.23502 33.73145 4.5055 z" />
<glyph unicode="@" horiz-adv-x="108.18204" d="M76 12 L80 8 L76 4 L20 3.92814 L16 8 L20 12 L76 12 zM16 16 L12 12 L8 16 L7.88982 83.86945 L12 88 L16 84 L16 16 zM44.03593 44.04731 L40.03593 40.04731 L36.03593 44.04731 L35.88982 55.96407 L40 60.09462 L44 56.09462 L44.03593 44.04731 zM88 96 L92 92 L88 88 L20.0479 87.997 L16 92 L20 96 L88 96 zM60.11018 68.03593 L64.11018 64.03593 L60.11018 60.03593 L48 60 L44 64.07186 L48 68.07186 L60.11018 68.03593 zM60.11018 40.03593 L64.11018 36.03593 L60.11018 32.03593 L48 32 L44 36.07186 L48 40.07186 L60.11018 40.03593 zM72.14611 44.08324 L68.14611 40.08324 L64.14611 44.08324 L64 56 L68.11018 60.13055 L72.11018 56.13055 L72.14611 44.08324 zM88.11018 40.03593 L92.11018 36.03593 L88.11018 32.03593 L76 32 L72 36.07186 L76 40.07186 L88.11018 40.03593 zM100 44 L96 40 L92 44 L91.88982 83.86945 L96 88 L100 84 L100 44 z" />
<glyph unicode="A" horiz-adv-x="68" d="M44 54 L48 50 L44.11018 45.96407 L24 46 L20 50 L24 54 L44 54 zM16 16 L12 12 L8 16 L8 86 L12 90.04731 L16 86 L16 16 zM47.88982 98.03593 L51.88982 94.03593 L48 90 L19.88982 90.03593 L15.88982 94.03593 L19.77964 98.02455 L47.88982 98.03593 zM60 16 L56 12 L52 16 L52 86 L56 90.04731 L60 86 L60 16 z" />
<glyph unicode="B" horiz-adv-x="68" d="M16 6 L12 2 L8 6 L8.21078 93.98503 L12 98 L16.21078 93.98503 L16 6 zM48 98 L51.88982 94.03593 L48 90 L24 90 L20 94 L24 98 L48 98 zM48.21078 53.98503 L52.1006 50.02096 L48.21078 45.98503 L24.21078 45.98503 L20.21078 49.98503 L24.21078 53.98503 L48.21078 53.98503 zM60.21078 57.98503 L56 54 L52 58 L52 58 L52.21078 85.98503 L56 90 L60.21078 85.98503 L60.21078 57.98503 zM48 10 L51.88982 6.03593 L48 2 L24 2 L20 6 L24 10 L48 10 zM60 14 L55.78922 10.01497 L52 14 L52 14 L52 42 L55.78922 46.01497 L60 42 L60 14 z" />
<glyph unicode="C" horiz-adv-x="58" d="M48 10 L52 6 L48 2 L20.11018 1.96407 L16 6 L20 10 L48 10 zM16 14 L12 10 L8 14 L8 86 L12 90.04731 L16 86 L16 14 zM47.88982 98.03593 L51.88982 94.03593 L47.88982 90.03593 L20 90 L15.88982 94.03593 L20 98 L47.88982 98.03593 z" />
<glyph unicode="D" horiz-adv-x="68" d="M48 10 L52 6 L48.11018 1.96407 L24 2 L20 6 L24 10 L48 10 zM16 6 L12 2 L8 6 L8 94 L12 98 L16 93.95269 L16 6 zM47.88982 98.03593 L51.88982 94.03593 L48 90 L24 90 L20 94 L24 98 L47.88982 98.03593 zM60 14 L56 10 L52 14 L52 86 L56 90.04731 L60 86 L60 14 z" />
<glyph unicode="E" horiz-adv-x="58" d="M48 10 L52 6 L48.11018 1.96407 L24 2 L20 6 L24 10 L48 10 zM16 6 L12 2 L8 6 L8 94 L12 98 L16 94 L16 6 zM47.88982 98.03593 L51.88982 94.03593 L48 90 L24 90 L20 94 L24 98 L47.88982 98.03593 zM48.1006 54.02096 L52.1006 50.02096 L48.21078 45.98503 L24.21078 45.98503 L20.21078 49.98503 L24.21078 53.98503 L48.1006 54.02096 z" />
<glyph unicode="F" horiz-adv-x="58" d="M16 6 L12 2 L8 6 L8 94 L12 98 L16 94 L16 6 zM48 98 L51.88982 94.03593 L48 90 L24 90 L20 94 L24 98 L48 98 zM48 54 L52.1006 50.02096 L48 46 L24 46 L20.21078 49.98503 L24 54 L48 54 z" />
<glyph unicode="G" horiz-adv-x="68" d="M60 14 L56 10 L52 14 L52 38 L56 42 L60 38 L60 14 zM56 54 L60 50 L56 46 L34 46 L30 50 L34 54 L56 54 zM16 16 L12 12 L8 16 L8 86 L12 90 L16 86 L16 16 zM48 98 L52 94 L48 90 L20 90 L16 94 L20 98 L48 98 zM48 12 L52 8 L48 4 L20 4 L16 8 L20 12 L48 12 z" />
<glyph unicode="H" horiz-adv-x="68" d="M44 54 L48 50 L44 46 L24 46 L20 50 L24 54 L44 54 zM16 16 L12 12 L8 16 L8 86 L12 90 L16 86 L16 16 zM60 16 L56 12 L52 16 L52 86 L56 90 L60 86 L60 16 z" />
<glyph unicode="I" horiz-adv-x="48.11018" d="M38 10 L42.11018 6 L38 2 L10 2 L6.11018 6 L10 10 L38 10 zM28 18 L24.11018 14 L20 18 L20 82 L24.11018 86 L28 82 L28 18 zM38 98 L42 94.03593 L38 90 L10 90 L6 94.03593 L10 98 L38 98 z" />
<glyph unicode="J" horiz-adv-x="68" d="M48 10 L52 6 L48 2 L20 2 L16 6 L20 10 L48 10 zM16 14 L12 10 L8 14 L8 30 L12 34 L16 30 L16 14 zM60 14 L56 10 L52 14 L52 86 L56 90.04731 L60 86 L60 14 z" />
<glyph unicode="K" horiz-adv-x="64" d="M16 14 L12 10 L8 14 L8 86 L12 90.04731 L16 86 L16 14 zM58 82 L28 52 L22 52 L22 58 L52 88 L58 88 L58 82 zM58 12 L52 12 L22 42 L22 48 L28 48 L58 18 L58 12 z" />
<glyph unicode="L" horiz-adv-x="58" d="M48 10 L52 6 L48 2 L24 2 L20 6 L24 10 L48 10 zM16 6 L12 2 L8 6 L8 94 L12 98 L16 94 L16 6 z" />
<glyph unicode="M" horiz-adv-x="92" d="M8 86 L12 90 L16 86 L16 14 L12 10 L8 14 L8 86 zM20 72 L20 78 L26 78 L44 60 L44 54 L38 54 L20 72 zM84 14 L80 10 L76 14 L76 86 L80 90 L84 86 L84 14 zM54 54 L48 54 L48 60 L66 78 L72 78 L72 72 L54 54 z" />
<glyph unicode="N" horiz-adv-x="66" d="M50 86 L54 90 L58 86 L58 14 L54 10 L50 14 L50 86 zM8 86 L12 90 L16 86 L16 14 L12 10 L8 14 L8 86 zM20 72 L20 78 L26 78 L46 58 L46 52 L40 52 L20 72 z" />
<glyph unicode="O" horiz-adv-x="68" d="M48 10 L52 6 L48 2 L20 2 L16 6 L20 10 L48 10 zM16 14 L12 10 L8 14 L8 86 L12 90.04731 L16 86 L16 14 zM48 98 L51.88982 94.03593 L48 90 L20 90 L15.88982 94.03593 L20 98 L48 98 zM60 14 L56 10 L52 14 L52 86 L56 90.04731 L60 86 L60 14 z" />
<glyph unicode="P" horiz-adv-x="68" d="M16 6 L12 2 L8 6 L8 94 L12 98 L16 94 L16 6 zM48 98 L51.88982 94.03593 L48 90 L24 90 L20 94 L24 98 L48 98 zM48 54 L52.1006 50.02096 L48 46 L24 46 L20.21078 49.98503 L24 54 L48 54 zM60 58 L56 54 L52 58 L52 58 L52 86 L56 90 L60 86 L60 58 z" />
<glyph unicode="Q" horiz-adv-x="68" d="M38 10 L42 6 L38 2 L20 2 L16 6 L20 10 L38 10 zM16 14 L12 10 L8 14 L8 86 L12 90 L16 86 L16 14 zM48 98 L52 94 L48 90 L20 90 L16 94 L20 98 L48 98 zM60 24 L56 20 L52 24 L52 86 L56 90 L60 86 L60 24 zM44 18 L50 18 L64 4 L64 -2 L58 -2 L44 12 L44 18 z" />
<glyph unicode="R" horiz-adv-x="68" d="M16 6 L12 2 L8 6 L8 94 L12 98 L16 94 L16 6 zM48 98 L52 94 L48 90 L24 90 L20 94 L24 98 L48 98 zM48 54 L52 50 L48 46 L24 46 L20 50 L24 54 L48 54 zM60 58 L56 54 L52 58 L52 58 L52 86 L56 90 L60 86 L60 58 zM20 42 L26 42 L58 10 L58 4 L52 4 L20 36 L20 42 z" />
<glyph unicode="S" horiz-adv-x="68" d="M48 10 L52 6 L48 2 L20 2 L16 6 L20 10 L48 10 zM60 14 L56.03593 9.95269 L52 14 L52 42 L56.03593 45.95269 L60 42 L60 14 zM48 54 L51.88982 49.98862 L48 46 L20 46 L15.88982 49.98862 L20 54 L48 54 zM16 58 L12 54 L8 58 L8 86 L12 90 L16 86 L16 58 zM48 98 L51.88982 94.03593 L48 90 L20 90 L15.88982 94.03593 L20 98 L48 98 zM60 76 L56.14072 72 L52 76 L52 86 L56 90.26347 L60 86 L60 76 zM16 14 L12 10 L8 14 L8 24 L12 28 L16 24 L16 14 z" />
<glyph unicode="T" horiz-adv-x="64" d="M36 18 L32.10778 14 L28 18 L28 82 L32.10778 86 L36 82 L36 18 zM54 98 L58 94 L54 90 L10 90 L6 94 L10 98 L54 98 z" />
<glyph unicode="U" horiz-adv-x="68" d="M48 10 L52 6 L48 2 L20 2 L16 6 L20 10 L48 10 zM60 14 L56 10 L52 14 L52 86 L56 90.04731 L60 86 L60 14 zM16 14 L12 10 L8 14 L8 86 L12 90 L16 86 L16 14 z" />
<glyph unicode="V" horiz-adv-x="88" d="M8 36 L14 36 L42 8 L42 2 L36 2 L8 30 L8 36 zM80 30 L52 2 L46 2 L46 8 L74 36 L80 36 L80 30 zM16 44 L12 40 L8 44 L8 86 L12 90 L16 86 L16 44 zM80 44 L76 40 L72 44 L72 86 L76 90 L80 86 L80 44 z" />
<glyph unicode="W" horiz-adv-x="88" d="M16 14 L12 10 L8 14 L8 86 L12 90 L16 86 L16 14 zM48 14 L43.88982 10.05869 L40 14 L40 42 L43.88982 46.05869 L48 42 L48 14 zM80 14 L75.89192 10.01138 L72 14 L72 86 L75.89192 90 L80 86 L80 14 zM52 2 L48 6 L52 10 L68 10 L72 6 L68 2 L52 2 zM20 2 L16 6 L20 10 L36 10 L40 6 L36 2 L20 2 z" />
<glyph unicode="X" horiz-adv-x="88" d="M6 88 L12 88 L42 58 L42 52 L36 52 L6 82 L6 88 zM6 18 L36 48 L42 48 L42 42 L12 12 L6 12 L6 18 zM82 82 L52 52 L46 52.00299 L46 58 L76 88 L82 88 L82 82 zM82 12 L76 12 L46 42 L46 48.00299 L52 48 L82 18 L82 12 z" />
<glyph unicode="Y" horiz-adv-x="88" d="M6 88 L12 88 L42 58 L42 52 L36 52 L6 82 L6 88 zM82 82 L52 52 L46 52.00299 L46 58 L76 88 L82 88 L82 82 zM48 14 L44 10 L40 14 L40 46 L44 50 L48 46 L48 14 z" />
<glyph unicode="Z" horiz-adv-x="64" d="M56 10 L60 6 L56 2 L6 2 L2 6 L6 10 L56 10 zM58 98 L62 94 L58 90 L8 90 L4 94 L8 98 L58 98 zM62 76 L8 18 L2 18 L2 24 L56 82 L62 82 L62 76 z" />
<glyph unicode="[" horiz-adv-x="50" d="M16 0 L12 -4 L8 0 L8 100 L12 104 L16 100 L16 0 zM40 96 L24 96 L20 100 L24 104 L40 104 L44 100 L40 96 zM40 -4 L24 -4 L20 0 L24 4 L40 4 L44 0 L40 -4 z" />
<glyph unicode="\" horiz-adv-x="88" d="M6 88 L12 88 L82 18 L82 12 L76 12 L6 82 L6 88 z" />
<glyph unicode="]" horiz-adv-x="50" d="M34 100 L38 104 L42 100 L42 0 L38 -4 L34 0 L34 100 zM6 100 L10 104 L26 104 L30 100 L26 96 L10 96 L6 100 zM6 0 L10 4 L26 4 L30 0 L26 -4 L10 -4 L6 0 z" />
<glyph unicode="^" horiz-adv-x="56" d="M6 86 L20 100 L26 100 L26 94 L12 80 L6 80 L6 86 zM50 80 L44 80 L30 94 L30 100 L36 100 L50 86 L50 80 z" />
<glyph unicode="_" horiz-adv-x="68" d="M64 10 L68 6 L64 2 L4 2 L0 6 L4 10 L64 10 z" />
<glyph unicode="`" horiz-adv-x="32" d="M6 104 L12 104 L26 90 L26 84 L20 84 L6 98 L6 104 z" />
<glyph unicode="a" horiz-adv-x="68" d="M48 10 L52 6 L48 2 L20 2 L16 6 L20 10 L48 10 zM16 14 L12 10 L8 14 L8 20 L12 24 L16 20 L16 14 zM60 14 L56.03593 9.95269 L52 14 L52 42 L56.03593 45.95269 L60 42 L60 14 zM48 54 L51.88982 49.98862 L48 46 L14 46 L10 50 L14 54 L48 54 zM44 32 L48 28 L44 24 L20 24 L16 28 L20 32 L44 32 z" />
<glyph unicode="b" horiz-adv-x="68" d="M16 6 L12 2 L8 6 L8 94 L12 98 L16 94 L16 6 zM48 54 L52.1006 50.03593 L48 46 L24 46 L20.21078 50 L24 54 L48 54 zM48 10 L51.88982 6.03593 L48 2 L24 2 L20 6 L24 10 L48 10 zM60 14 L56 10 L52 14 L52 14 L52 42 L56 46 L60 42 L60 14 z" />
<glyph unicode="c" horiz-adv-x="58" d="M48 10 L52 6 L48 2 L20 2 L16 6 L20 10 L48 10 zM16 14 L12 10 L8 14 L8 42 L12 46 L16 42 L16 14 zM48 54 L51.88982 49.98862 L48 46 L20 46 L15.88982 49.98862 L20 54 L48 54 z" />
<glyph unicode="d" horiz-adv-x="68" d="M52 94 L56 98 L60 94 L60 6 L56 2 L52 6 L52 94 zM44 54 L48 50 L44 46 L20 46 L16 50 L20 54 L44 54 zM44 10 L48 6 L44 2 L20 2 L16.11018 6.03593 L20 10 L44 10 zM8 42 L12 46 L16 42 L16 14 L16 14 L12 10 L8 14 L8 42 z" />
<glyph unicode="e" horiz-adv-x="68" d="M20 46 L16.03593 50 L20 54 L48 54 L52.03593 50 L48 46 L20 46 zM52 42 L56.03593 46 L60 42 L60 36 L56.03593 32 L52 36 L52 42 zM8 42 L12 46.04731 L16 42 L16 14 L12 10.04731 L8 14 L8 42 zM20 2 L16.14611 6.01138 L20 10 L54 10 L58.03593 6 L54 2 L20 2 zM24 24 L20.03593 28 L24 32 L48 32 L52.03593 28 L48 24 L24 24 z" />
<glyph unicode="f" horiz-adv-x="60" d="M30 58 L26 54.04731 L22 58 L22 86 L26 90 L30 86 L30 58 zM30 14 L26 10 L22 14 L22 42 L26 46 L30 42 L30 14 zM18 54 L22.11018 50.05869 L18 46 L10 46 L6 50 L10 54 L18 54 zM42 54 L46 50 L42 46 L34 46 L30 50.04731 L34 54 L42 54 zM50 98 L54 94 L50 90 L34 90 L30 94 L34 98 L50 98 z" />
<glyph unicode="g" horiz-adv-x="68.03593" d="M44 10 L48 6 L44 2 L20 2 L16 6 L20 10 L44 10 zM16 14 L12 10 L8 14 L8 42 L12 46 L16 42 L16 14 zM60 -14 L56 -18 L52 -14 L52 42 L56 46 L60 42 L60 -14 zM48 54 L51.88982 49.98862 L48 46 L20 46 L15.88982 49.98862 L20 54 L48 54 zM48 -18 L52 -22 L48 -26 L10 -26 L6 -22 L10 -18 L48 -18 z" />
<glyph unicode="h" horiz-adv-x="68" d="M16 14 L12 10 L8 14 L8 94 L12 98 L16 94 L16 14 zM48 54 L52 50 L48 46 L24 46 L20 50 L24 54 L48 54 zM60 14 L56 10 L52 14 L52 14 L52 42 L56 46 L60 42 L60 14 z" />
<glyph unicode="i" horiz-adv-x="24.07247" d="M16 14 L12 10 L8 14 L8 42 L12 46 L16 42 L16 14 zM15.73151 70.55276 Q15.42365 69.82411 14.86446 69.25513 Q14.32132 68.69986 13.56684 68.38809 Q12.84097 68.09582 12.03619 68.08362 Q11.25377 68.07632 10.50553 68.38809 Q9.77977 68.68071 9.2079 69.25513 Q8.6496 69.80322 8.34086 70.55276 Q8.03441 71.27293 8.03639 72.08341 Q8.02941 72.86552 8.34086 73.61407 Q8.63318 74.34052 9.2079 74.91169 Q9.75604 75.46872 10.50553 75.77874 Q11.22646 76.08714 12.03619 76.0832 Q12.8162 76.08779 13.56684 75.77874 Q14.29746 75.4885 14.86446 74.91169 Q15.41646 74.36197 15.73151 73.61407 Q16.04519 72.89282 16.03598 72.08341 Q16.03975 71.28228 15.73151 70.55276 z" />
<glyph unicode="j" horiz-adv-x="60.1287" d="M52 -14 L48.05629 -18 L44 -14 L44 42 L48 46 L52 42 L52 -14 zM40 -18 L44 -22 L40 -26 L20 -26 L16 -22 L20 -18 L40 -18 zM8 -8 L12 -4.06403 L16 -8 L16 -14 L12 -18.06403 L8 -14 L8 -8 zM51.78774 70.50545 Q51.47988 69.7768 50.92069 69.20782 Q50.37755 68.65255 49.62307 68.34078 Q48.8972 68.04851 48.09242 68.03631 Q47.31 68.02901 46.56176 68.34078 Q45.836 68.6334 45.26413 69.20782 Q44.70583 69.75591 44.39709 70.50545 Q44.09064 71.22562 44.09262 72.0361 Q44.08564 72.81821 44.39709 73.56676 Q44.68941 74.29321 45.26413 74.86438 Q45.81227 75.42141 46.56176 75.73143 Q47.28269 76.03983 48.09242 76.03589 Q48.87243 76.04048 49.62307 75.73143 Q50.35369 75.44119 50.92069 74.86438 Q51.47269 74.31466 51.78774 73.56676 Q52.10142 72.84551 52.09221 72.0361 Q52.09598 71.23497 51.78774 70.50545 z" />
<glyph unicode="k" horiz-adv-x="48" d="M16 14 L12 10 L8 14 L8 86 L12 90 L16 86 L16 14 zM40 14 L34 14 L20 28 L20 34 L26 34 L40 20 L40 14 zM40 52 L26 38 L20 38 L20 44 L34 58 L40 58 L40 52 z" />
<glyph unicode="l" horiz-adv-x="24.10778" d="M16 14 L12 10 L8 14 L8 86 L12 90 L16 86 L16 14 z" />
<glyph unicode="m" horiz-adv-x="80.0021" d="M16 14 L12 10 L8 14 L8 42 L12 46 L16 42 L16 14 zM44 14 L40 9.95269 L36 14 L36 42 L40 45.95269 L44 42 L44 14 zM32 54 L36 50 L32 46 L20 46 L16 50 L20 54 L32 54 zM72 14 L68.0021 10 L64 14 L64 42 L68.0021 46 L72 42 L72 14 zM60 54 L64 50 L60 46 L48 46 L44 50 L48 54 L60 54 z" />
<glyph unicode="n" horiz-adv-x="68" d="M16 14 L12 10 L8 14 L8 42 L12 46 L16 42 L16 14 zM60 14 L56 10 L52 14 L52 42 L56 46 L60 42 L60 14 zM48 54 L52 50 L48 46 L20 46 L16 50 L20 54 L48 54 z" />
<glyph unicode="o" horiz-adv-x="68" d="M48 10 L52 6 L48 2 L20 2 L16 6 L20 10 L48 10 zM16 14 L12 10 L8 14 L8 42 L12 46 L16 42 L16 14 zM60 14 L56.03593 9.95269 L52 14 L52 42 L56.03593 45.95269 L60 42 L60 14 zM48 54 L51.88982 49.98862 L48 46 L20 46 L15.88982 49.98862 L20 54 L48 54 z" />
<glyph unicode="p" horiz-adv-x="68" d="M16 -24 L12 -28 L8 -24 L8 50 L12 54 L16 50 L16 -24 zM24 2 L20.21078 6 L24 10 L48 10 L52.1006 5.96407 L48 2 L24 2 zM24 46 L20 50 L24 54 L48 54 L51.88982 49.96407 L48 46 L24 46 zM60 14 L56 10 L52 14 L52 42 L52 42 L56 46 L60 42 L60 14 z" />
<glyph unicode="q" horiz-adv-x="98" d="M52 50 L56 54 L60 50 L60 -14 L56 -18 L52 -14 L52 50 zM20 2 L15.8994 5.96407 L20 10 L44 10 L47.78922 6 L44 2 L20 2 zM20 46 L16.11018 49.96407 L20 54 L44 54 L48 50 L44 46 L20 46 zM8 42 L12 46 L16 42 L16 42 L16 14 L12 10 L8 14 L8 42 zM78 -18 L82 -22 L78 -26 L64 -26 L60 -22 L64 -18 L78 -18 zM90 -14 L86 -18 L82 -14 L82 -8 L86 -4 L90 -8 L90 -14 z" />
<glyph unicode="r" horiz-adv-x="58" d="M16 14 L12 10 L8 14 L8 42 L12 46 L16 42 L16 14 zM48 54 L52 50 L48 46 L20 46 L16 50 L20 54 L48 54 z" />
<glyph unicode="s" horiz-adv-x="68" d="M20 46 L16 50 L20 54 L48 54 L52 50 L48 46 L20 46 zM16 36 L12 32 L8 36 L8 42 L12 46 L16 42 L16 36 zM14 2 L10 6 L14 10 L48 10 L51.88982 6.01138 L48 2 L14 2 zM20 24 L16 28 L20 32 L48 32 L52 28 L48 24 L20 24 zM60 14 L56 9.99701 L52 14 L52 20 L56 23.99701 L60 20 L60 14 z" />
<glyph unicode="t" horiz-adv-x="60.11018" d="M34 58 L30 54.04731 L26 58 L26 78 L30 82 L34 78 L34 58 zM34 14 L30 10 L26 14 L26 42 L30 46 L34 42 L34 14 zM22 54 L26.11018 50.05869 L22 46 L10 46 L6 50.04731 L10 54 L22 54 zM50 54 L54 50 L50 46 L38 46 L34 50 L38 54 L50 54 zM46 10 L50 6 L46 2 L38 2 L34 6 L38 10 L46 10 z" />
<glyph unicode="u" horiz-adv-x="68" d="M48 10 L52 6 L48 2 L20 2 L16 6 L20 10 L48 10 zM16 14 L12 10 L8 14 L8 42 L12 46 L16 42 L16 14 zM60 14 L56.03593 9.95269 L52 14 L52 42 L56.03593 45.95269 L60 42 L60 14 z" />
<glyph unicode="v" horiz-adv-x="80" d="M6 42 L12 42 L38 16 L38 10 L32 10 L6 36 L6 42 zM74 36 L48 10 L42 10 L42 16 L68 42 L74 42 L74 36 z" />
<glyph unicode="w" horiz-adv-x="80" d="M16 14 L12 10.01138 L8 14 L8 42 L12 46.01138 L16 42 L16 14 zM44 14 L40 10.05869 L36 14 L36 42 L40 46.05869 L44 42 L44 14 zM20 2 L16 6 L20 10 L32 10 L36.11018 6 L32 2 L20 2 zM72 14 L68.0021 10.01138 L64 14 L64 42 L68.0021 46.01138 L72 42 L72 14 zM48 2 L44 6.01138 L48 10 L60 10 L64.11018 6 L60 2 L48 2 z" />
<glyph unicode="x" horiz-adv-x="56" d="M6 16 L20 28 L26 28 L26 22 L12 8 L6 8 L6 16 zM6 52 L12 52 L26 38 L26 32 L20 32 L6 46 L6 52 zM50 8 L44 8 L30 22 L30 28 L36 28 L50 14 L50 8 zM50 46 L36 32 L30 32 L30 38 L44 52 L50 52 L50 46 z" />
<glyph unicode="y" horiz-adv-x="68" d="M44 10 L48 6 L44 2 L20 2 L16 6 L20 10 L44 10 zM16 14 L12 10 L8 14 L8 42 L12 46 L16 42 L16 14 zM60 -14 L56 -18 L52 -14 L52 42 L56 46 L60 42 L60 -14 zM48 -18 L52 -22 L48 -26 L20 -26 L16 -22 L20 -18 L48 -18 z" />
<glyph unicode="z" horiz-adv-x="48" d="M38 10 L42 6 L38 2 L10 2 L6 6 L10 10 L38 10 zM16 14 L10 14 L10 20 L32 42 L38 42 L38 36 L16 14 zM38 54 L42 49.98862 L38 46 L10 46 L6 49.98862 L10 54 L38 54 z" />
<glyph unicode="{" horiz-adv-x="60" d="M24 42 L28 46 L32 42 L32 14 L28 10 L24 14 L24 42 zM20 54 L24.11018 49.98862 L20 46 L10 46 L6 50 L10 54 L20 54 zM24 86 L28 90.04731 L32 86 L32 58 L28 54.04731 L24 58 L24 86 zM54 104 L40 90 L34 90 L34 96 L48 110 L54 110 L54 104 zM34 10 L40 10 L54 -4 L54 -10 L48 -10 L34 4 L34 10 z" />
<glyph unicode="|" horiz-adv-x="24" d="M16 -2 L12 -6 L8 -2 L8 102 L12 106 L16 102 L16 -2 z" />
<glyph unicode="}" horiz-adv-x="60" d="M36 14 L32 10 L28 14 L28 42 L32 46 L36 42 L36 14 zM50 54 L54 50 L50 46 L40 46 L35.88982 49.98862 L40 54 L50 54 zM36 58 L32 54.04731 L28 58 L28 86 L32 90.04731 L36 86 L36 58 zM6 110 L12 110 L26 96 L26 90 L20 90 L6 104 L6 110 zM26 4 L12 -10 L6 -10 L6 -4 L20 10 L26 10 L26 4 z" />
<glyph unicode="~" horiz-adv-x="68" d="M22 52 L12 42 L6 42 L6 48 L16 58 L22 58 L22 52 zM26 58 L32 58 L42 48 L42 42 L36 42 L26 52 L26 58 zM62 52 L52 42 L46 42 L46 48 L56 58 L62 58 L62 52 z" />
<glyph unicode="¡" horiz-adv-x="24.07241" d="M16.03592 91.9639 Q16.04513 91.15449 15.73145 90.43324 Q15.4164 89.68534 14.8644 89.13562 Q14.2974 88.55881 13.56678 88.26857 Q12.81614 87.95952 12.03613 87.96411 Q11.2264 87.96017 10.50547 88.26857 Q9.75598 88.57859 9.20784 89.13562 Q8.63312 89.70679 8.3408 90.43324 Q8.02935 91.18179 8.03633 91.9639 Q8.03435 92.77438 8.3408 93.49455 Q8.64954 94.24409 9.20784 94.79218 Q9.77971 95.3666 10.50547 95.65922 Q11.25371 95.97099 12.03613 95.96369 Q12.84091 95.95149 13.56678 95.65922 Q14.32126 95.34745 14.8644 94.79218 Q15.42359 94.2232 15.73145 93.49455 Q16.03969 92.76503 16.03592 91.9639 zM16 4 L12 0.00005 L8 4 L8 74 L12 78.00005 L16 74 L16 4 z" />
<glyph unicode="¦" horiz-adv-x="24.01198" d="M16 58 L12 54.04731 L8 58 L8 102 L12 106 L16 102 L16 58 zM16 -2 L12 -6 L8 -2 L8 42 L12.01198 45.96137 L16 42 L16 -2 z" />
<glyph unicode="°" horiz-adv-x="52" d="M16 74 L12.03593 69.97545 L8 74 L8 86 L12 90.02276 L16 86 L16 74 zM32 98 L36.11018 93.96407 L32 90 L20 90 L16 94 L20 98 L32 98 zM32 70 L36.11018 65.96407 L32 62 L20 62 L16 66 L20 70 L32 70 zM44 74 L40 70 L36 74 L36 86 L40 90 L44 86 L44 74 z" />
<glyph unicode="¿" horiz-adv-x="68" d="M42 58 L38 54 L34 58 L34 76 L38 80 L42 76 L42 58 zM20 46 L16 50 L20 54 L30 54 L34 50 L30 46 L20 46 zM16 14 L12 10 L8 14 L8 42 L12 46 L16 42 L16 14 zM20 2 L15.88982 6.00005 L20 10 L48 10 L51.88982 6.00005 L48 2 L20 2 zM60 14 L56.14072 10.03598 L52 14 L52 24 L56.14072 28.03598 L60 24 L60 14 zM34.40927 95.53048 Q34.71713 96.25913 35.27632 96.82811 Q35.81946 97.38338 36.57394 97.69515 Q37.29981 97.98742 38.10459 97.99962 Q38.88701 98.00692 39.63525 97.69515 Q40.36101 97.40253 40.93288 96.82811 Q41.49118 96.28002 41.79992 95.53048 Q42.10637 94.81031 42.10439 93.99983 Q42.11137 93.21772 41.79992 92.46917 Q41.5076 91.74272 40.93288 91.17155 Q40.38474 90.61452 39.63525 90.3045 Q38.91432 89.9961 38.10459 90.00004 Q37.32458 89.99545 36.57394 90.3045 Q35.84332 90.59474 35.27632 91.17155 Q34.72432 91.72127 34.40927 92.46917 Q34.09559 93.19042 34.1048 93.99983 Q34.10103 94.80096 34.40927 95.53048 z" />
<glyph unicode="Á" horiz-adv-x="68" d="M44 46 L48 42 L44 38 L24 38 L20 42 L24 46 L44 46 zM16 16 L12 12 L8 16 L8 68 L12.11018 72.01138 L16 68 L16 16 zM48 80 L52 76 L48 72 L20 72 L16 76 L20 80 L48 80 zM60 16 L56 12 L52 16 L52 68 L56.11018 72.01138 L60 68 L60 16 zM44 100 L30 86 L24 86 L24 92 L38 106 L44 106 L44 100 z" />
<glyph unicode="É" horiz-adv-x="58" d="M48 10 L52 6 L48 2 L24 2 L20 6 L24 10 L48 10 zM16 6 L12 2 L8 6 L8 76 L12 80 L16 76 L16 6 zM48 80 L52 76 L48 72 L24 72 L20 76 L24 80 L48 80 zM48 46 L52 42 L48 38 L24 38 L20.21078 41.98503 L24 46 L48 46 zM38 100 L24 86 L18 86 L18 92 L32 106 L38 106 L38 100 z" />
<glyph unicode="Í" horiz-adv-x="48.11018" d="M38 10 L42.11018 6 L38 2 L10 2 L6.11018 6 L10 10 L38 10 zM28 18 L24 14 L20 18 L20 64 L24 68 L28 64 L28 18 zM38 80 L42 76 L38 72 L10 72 L6 76 L10 80 L38 80 zM34 100 L20 86 L14 86 L14 92 L28 106 L34 106 L34 100 z" />
<glyph unicode="Ñ" horiz-adv-x="66" d="M50 74 L54 78 L58 74 L58 14 L54 10 L50 14 L50 74 zM8 74 L12 78 L16 74 L16 14 L12 10 L8 14 L8 74 zM20 62 L20 68 L26 68 L46 48 L46 42 L40 42 L20 62 zM22 94 L12 84 L6 84 L6 90 L16 100 L22 100 L22 94 zM26 100 L32 100 L42 90 L42 84 L36 84 L26 94 L26 100 zM62 94 L52 84 L46 84 L46 90 L56 100 L62 100 L62 94 z" />
<glyph unicode="Ó" horiz-adv-x="68" d="M48 10 L52 6 L48 2 L20 2 L16 6 L20 10 L48 10 zM16 14 L12 10 L8 14 L8 68 L12 72 L16 68 L16 14 zM48 80 L52 75.95269 L48 72 L20 72 L16 75.95269 L20 80 L48 80 zM60 14 L56 10 L52 14 L52 68 L56 72 L60 68 L60 14 zM44 100 L30 86 L24 86 L24 92 L38 106 L44 106 L44 100 z" />
<glyph unicode="×" horiz-adv-x="56" d="M6 34 L20 48 L26 48 L26 42 L12 28 L6 28 L6 34 zM6 72 L12 72 L26 58 L26 52 L20 52 L6 66 L6 72 zM50 28 L44 28 L30 42 L30 48 L36 48 L50 34 L50 28 zM50 66 L36 52 L30 52 L30 58 L44 72 L50 72 L50 66 z" />
<glyph unicode="Ú" horiz-adv-x="68" d="M48 10 L52 6 L48 2 L20 2 L16 6 L20 10 L48 10 zM60 14 L56 10 L52 14 L52 68 L56 72 L60 68 L60 14 zM16 14 L12 10 L8 14 L8 68 L12 72 L16 68 L16 14 zM44 100 L30 86 L24 86 L24 92 L38 106 L44 106 L44 100 z" />
<glyph unicode="á" horiz-adv-x="68" d="M48 10 L52 6 L48 2 L20 2 L16 6 L20 10 L48 10 zM16 14 L12 10 L8 14 L8 20 L12 24 L16 20 L16 14 zM60 14 L56.03593 9.95269 L52 14 L52 42 L56.03593 45.95269 L60 42 L60 14 zM48 54 L51.88982 49.98862 L48 46 L14 46 L10 50 L14 54 L48 54 zM44 32 L48 28 L44 24 L20 24 L16 28 L20 32 L44 32 zM44 76 L30 62 L24 62 L24 68 L38 82 L43.89899 81.89899 L44 76 z" />
<glyph unicode="é" horiz-adv-x="68" d="M20 46 L16.03593 50 L20 54 L48 54 L52.03593 50 L48 46 L20 46 zM52 42 L56.03593 46 L60 42 L60 36 L56.03593 32 L52 36 L52 42 zM8 42 L12 46.04731 L16 42 L16 14 L12 10.04731 L8 14 L8 42 zM20 2 L16.14611 6.01138 L20 10 L54 10 L58.03593 6 L54 2 L20 2 zM24 24 L20.03593 28 L24 32 L48 32 L52.03593 28 L48 24 L24 24 zM44 76 L30 62 L24 62 L24 68 L38 82 L44 82 L44 76 z" />
<glyph unicode="í" horiz-adv-x="24" d="M16 14 L12 10 L8 14 L8 42 L12 46 L16 42 L16 14 zM22 76 L8 62 L2 62 L2 68 L16 82 L22 82 L22 76 z" />
<glyph unicode="ñ" horiz-adv-x="68" d="M16 14 L12 10 L8 14 L8 42 L12 46 L16 42 L16 14 zM60 14 L56.03593 9.95269 L52 14 L52 42 L56.03593 45.95269 L60 42 L60 14 zM48 54 L52 50 L48 46 L20 46 L16 50 L20 54 L48 54 zM22 80 L12 70 L6 70 L6 76 L16 86 L22 86 L22 80 zM26 86 L32 86 L42 76 L42 70 L36 70 L26 80 L26 86 zM62 80 L52 70 L46 70 L46 76 L56 86 L62 86 L62 80 z" />
<glyph unicode="ó" horiz-adv-x="68" d="M48 10 L52 6 L48 2 L20 2 L16 6 L20 10 L48 10 zM16 14 L12 10 L8 14 L8 42 L12 46 L16 42 L16 14 zM60 14 L56.03593 9.95269 L52 14 L52 42 L56.03593 45.95269 L60 42 L60 14 zM48 54 L51.88982 49.98862 L48 46 L20 46 L15.88982 49.98862 L20 54 L48 54 zM44 76 L30 62 L24 62 L24 68 L38 82 L44 82 L44 76 z" />
<glyph unicode="÷" horiz-adv-x="48" d="M27.73145 28.46927 Q27.42359 27.74062 26.8644 27.17164 Q26.32126 26.61637 25.56678 26.3046 Q24.84091 26.01234 24.03613 26.00013 Q23.25371 25.99284 22.50547 26.3046 Q21.77971 26.59723 21.20784 27.17164 Q20.64954 27.71974 20.3408 28.46927 Q20.03435 29.18945 20.03633 29.99993 Q20.02935 30.78204 20.3408 31.53058 Q20.63312 32.25703 21.20784 32.8282 Q21.75598 33.38523 22.50547 33.69525 Q23.2264 34.00366 24.03613 33.99972 Q24.81614 34.0043 25.56678 33.69525 Q26.2974 33.40501 26.8644 32.8282 Q27.4164 32.27849 27.73145 31.53058 Q28.04513 30.80934 28.03592 29.99993 Q28.03969 29.1988 27.73145 28.46927 zM27.73145 68.46927 Q27.42359 67.74062 26.8644 67.17164 Q26.32126 66.61637 25.56678 66.3046 Q24.84091 66.01234 24.03613 66.00013 Q23.25371 65.99284 22.50547 66.3046 Q21.77971 66.59723 21.20784 67.17164 Q20.64954 67.71974 20.3408 68.46927 Q20.03435 69.18945 20.03633 69.99993 Q20.02935 70.78204 20.3408 71.53058 Q20.63312 72.25703 21.20784 72.8282 Q21.75598 73.38523 22.50547 73.69525 Q23.2264 74.00366 24.03613 73.99972 Q24.81614 74.0043 25.56678 73.69525 Q26.2974 73.40501 26.8644 72.8282 Q27.4164 72.27849 27.73145 71.53058 Q28.04513 70.80934 28.03592 69.99993 Q28.03969 69.1988 27.73145 68.46927 zM38 54 L42 50 L38 46 L10 46 L6 50 L10 54 L38 54 z" />
<glyph unicode="ú" horiz-adv-x="68" d="M48 10 L52 6 L48 2 L20 2 L16 6 L20 10 L48 10 zM16 14 L12 10 L8 14 L8 42 L12 46 L16 42 L16 14 zM60 14 L56.03593 9.95269 L52 14 L52 42 L56.03593 45.95269 L60 42 L60 14 zM44 76 L30 62 L24 62 L24 68 L38 82 L43.89899 81.89899 L44 76 z" />
<glyph unicode="Ō" horiz-adv-x="68" d="M48 10 L52 6 L48 2 L20 2 L16 6 L20 10 L48 10 zM16 14 L12 10 L8 14 L8 72 L12 76.04731 L16 72 L16 14 zM48 84 L52 80 L48 76 L20 76 L16 80 L20 84 L48 84 zM60 14 L56 10 L52 14 L52 72 L56 76.04731 L60 72 L60 14 zM48 102 L52 98 L48 94 L20 94 L16 98 L20 102 L48 102 z" />
<glyph unicode="ʻ" horiz-adv-x="32" d="M26 98 L12 84 L6 84 L6 90 L20 104 L26 104 L26 98 zM20 78 L24 74 L20 70 L8 70 L4 74 L8 78 L20 78 z" />
<glyph unicode="‐" horiz-adv-x="48" d="M38 54 L42 49.98862 L38 46 L10 46 L6 49.98862 L10 54 L38 54 z" />
<glyph unicode="‑" horiz-adv-x="48" d="M38 54 L42 49.98862 L38 46 L10 46 L6 49.98862 L10 54 L38 54 z" />
<glyph unicode="‒" horiz-adv-x="68" d="M58 54 L62 50 L58 46 L10 46 L6 50 L10 54 L58 54 z" />
<glyph unicode="–" horiz-adv-x="74" d="M64 54 L68 50 L64 46 L10 46 L6 50 L10 54 L64 54 z" />
<glyph unicode="—" horiz-adv-x="80" d="M76 54 L80 50 L76 46 L4 46 L0 50 L4 54 L76 54 z" />
<glyph unicode="‘" horiz-adv-x="32" d="M6 104 L12 104 L26 90 L26 84 L20 84 L6 98 L6 104 z" />
<glyph unicode="’" horiz-adv-x="32" d="M26 98 L12 84 L6 84 L6 90 L20 104 L26 104 L26 98 z" />
<glyph unicode="“" horiz-adv-x="56" d="M30 104 L36 104 L50 90 L50 84 L44 84 L30 98 L30 104 zM6 104 L12 104 L26 90 L26 84 L20 84 L6 98 L6 104 z" />
<glyph unicode="”" horiz-adv-x="56" d="M26 98 L12 84 L6 84 L6 90 L20 104 L26 104 L26 98 zM50 98 L36 84 L30 84 L30 90 L44 104 L50 104 L50 98 z" />
<glyph unicode="‼" horiz-adv-x="44.07241" d="M15.73145 4.5055 Q15.42359 3.77685 14.8644 3.20787 Q14.32126 2.6526 13.56678 2.34083 Q12.84091 2.04856 12.03613 2.03636 Q11.25371 2.02906 10.50547 2.34083 Q9.77971 2.63345 9.20784 3.20787 Q8.64954 3.75596 8.3408 4.5055 Q8.03435 5.22567 8.03633 6.03615 Q8.02935 6.81826 8.3408 7.56681 Q8.63312 8.29326 9.20784 8.86443 Q9.75598 9.42146 10.50547 9.73148 Q11.2264 10.03988 12.03613 10.03594 Q12.81614 10.04053 13.56678 9.73148 Q14.2974 9.44124 14.8644 8.86443 Q15.4164 8.31471 15.73145 7.56681 Q16.04513 6.84556 16.03592 6.03615 Q16.03969 5.23502 15.73145 4.5055 zM16 24 L12 20 L8 24 L8 94 L12 98 L16 94 L16 24 zM35.73145 4.5055 Q35.42359 3.77685 34.8644 3.20787 Q34.32126 2.6526 33.56678 2.34083 Q32.84091 2.04856 32.03613 2.03636 Q31.25371 2.02906 30.50547 2.34083 Q29.77971 2.63345 29.20784 3.20787 Q28.64954 3.75596 28.3408 4.5055 Q28.03435 5.22567 28.03633 6.03615 Q28.02935 6.81826 28.3408 7.56681 Q28.63312 8.29326 29.20784 8.86443 Q29.75598 9.42146 30.50547 9.73148 Q31.2264 10.03988 32.03613 10.03594 Q32.81614 10.04053 33.56678 9.73148 Q34.2974 9.44124 34.8644 8.86443 Q35.4164 8.31471 35.73145 7.56681 Q36.04513 6.84556 36.03592 6.03615 Q36.03969 5.23502 35.73145 4.5055 zM36 24 L32 20 L28 24 L28 94 L32 98 L36 94 L36 24 z" />
<glyph unicode="⁈" horiz-adv-x="88.07241" d="M26 42 L30 46 L34 42 L34 24 L30 20 L26 24 L26 42 zM48 54 L52.2509 49.98862 L48 46 L38 46 L34 50 L38 54 L48 54 zM52 86 L56.14072 90.04731 L60 86 L60 58 L56.14072 54.04731 L52 58 L52 86 zM48 98 L52 94 L48 90 L20 90 L16 94 L20 98 L48 98 zM8 86 L12 90 L16 86 L16 76 L12 72 L8 76 L8 86 zM33.73145 4.5055 Q33.42359 3.77685 32.8644 3.20787 Q32.32126 2.6526 31.56678 2.34083 Q30.84091 2.04856 30.03613 2.03636 Q29.25371 2.02906 28.50547 2.34083 Q27.77971 2.63345 27.20784 3.20787 Q26.64954 3.75596 26.3408 4.5055 Q26.03435 5.22567 26.03633 6.03615 Q26.02935 6.81826 26.3408 7.56681 Q26.63312 8.29326 27.20784 8.86443 Q27.75598 9.42146 28.50547 9.73148 Q29.2264 10.03988 30.03613 10.03594 Q30.81614 10.04053 31.56678 9.73148 Q32.2974 9.44124 32.8644 8.86443 Q33.4164 8.31471 33.73145 7.56681 Q34.04513 6.84556 34.03592 6.03615 Q34.03969 5.23502 33.73145 4.5055 zM79.73145 4.50248 Q79.42359 3.77383 78.8644 3.20485 Q78.32126 2.64958 77.56678 2.33781 Q76.84091 2.04554 76.03613 2.03334 Q75.25371 2.02604 74.50547 2.33781 Q73.77971 2.63043 73.20784 3.20485 Q72.64954 3.75294 72.3408 4.50248 Q72.03435 5.22265 72.03633 6.03313 Q72.02935 6.81524 72.3408 7.56379 Q72.63312 8.29024 73.20784 8.86141 Q73.75598 9.41844 74.50547 9.72846 Q75.2264 10.03686 76.03613 10.03292 Q76.81614 10.03751 77.56678 9.72846 Q78.2974 9.43822 78.8644 8.86141 Q79.4164 8.31169 79.73145 7.56379 Q80.04513 6.84254 80.03592 6.03313 Q80.03969 5.232 79.73145 4.50248 zM80 24 L76 20 L72 24 L72 94 L76 98 L80 94 L80 24 z" />
<glyph unicode="⁉" horiz-adv-x="88.14099" d="M46 42 L50.00027 46 L54 42 L54 24 L50.00027 20 L46 24 L46 42 zM68 54 L72.25117 49.98862 L68 46 L58 46 L54.00027 50 L58 54 L68 54 zM72 86 L76.14099 90.04731 L80 86 L80 58 L76.14099 54.04731 L72 58 L72 86 zM68 98 L72.25117 94.03593 L68 90 L40 90 L36 94 L40 98 L68 98 zM28 86 L32.00027 90 L36 86 L36 76 L32.00027 72 L28 76 L28 86 zM53.73172 4.5055 Q53.42386 3.77685 52.86467 3.20787 Q52.32153 2.6526 51.56705 2.34083 Q50.84118 2.04856 50.0364 2.03636 Q49.25398 2.02906 48.50574 2.34083 Q47.77998 2.63345 47.20811 3.20787 Q46.64981 3.75596 46.34107 4.5055 Q46.03462 5.22567 46.0366 6.03615 Q46.02962 6.81826 46.34107 7.56681 Q46.63339 8.29326 47.20811 8.86443 Q47.75625 9.42146 48.50574 9.73148 Q49.22667 10.03988 50.0364 10.03594 Q50.81641 10.04053 51.56705 9.73148 Q52.29767 9.44124 52.86467 8.86443 Q53.41667 8.31471 53.73172 7.56681 Q54.0454 6.84556 54.03619 6.03615 Q54.03996 5.23502 53.73172 4.5055 zM15.73145 4.50248 Q15.42359 3.77383 14.8644 3.20485 Q14.32126 2.64958 13.56678 2.33781 Q12.84091 2.04554 12.03613 2.03334 Q11.25371 2.02604 10.50547 2.33781 Q9.77971 2.63043 9.20784 3.20485 Q8.64954 3.75294 8.3408 4.50248 Q8.03435 5.22265 8.03633 6.03313 Q8.02935 6.81524 8.3408 7.56379 Q8.63312 8.29024 9.20784 8.86141 Q9.75598 9.41844 10.50547 9.72846 Q11.2264 10.03686 12.03613 10.03292 Q12.81614 10.03751 13.56678 9.72846 Q14.2974 9.43822 14.8644 8.86141 Q15.4164 8.31169 15.73145 7.56379 Q16.04513 6.84254 16.03592 6.03313 Q16.03969 5.232 15.73145 4.50248 zM16 24 L12 19.99698 L8 24 L8 94 L12 98 L16 94 L16 24 z" />
<glyph unicode="▒" horiz-adv-x="108.18204" d="M32 12 L36.11018 8 L32 4 L20 4 L16 8 L20 12 L32 12 zM16 16 L12 12 L8 16 L8 28 L12 32 L16 28 L16 16 zM44 16 L40.03593 11.98862 L36 16 L36 28 L40 32 L44 28 L44 16 zM32 40 L36 36 L32 32 L20 32 L16 36 L20 40 L32 40 zM16 44 L12 40 L8 44 L8 56 L12 60 L16 56 L16 44 zM44 44 L40 40 L36 44 L36 56 L40 60 L44 56 L44 44 zM32 68 L36 64 L32 60 L20 60 L16 64 L20 68 L32 68 zM16 72 L12 68 L8 72 L8 84 L12 88 L16 84 L16 72 zM44 72 L40.07186 68.03593 L36 72 L36 84 L40.03593 88.08324 L44 84 L44 72 zM32 96 L36 92 L32 88 L20 88 L16 92 L20 96 L32 96 zM60 96 L64 92 L60 88 L48 88 L44 92 L48 96 L60 96 zM60 68 L64 64 L60 60 L48 60 L44 64 L48 68 L60 68 zM60 40 L64 36 L60 32 L48 32 L44 36 L48 40 L60 40 zM60 12 L64 8 L60 4 L48 4 L44 8 L48 12 L60 12 zM72 16 L68 12 L64 16 L64 28 L68 32 L72 28 L72 16 zM72 44 L68 40 L64 44 L64 56 L68 60 L72 56 L72 44 zM72 72 L68 68 L64 72 L64 84 L68 88 L72 84 L72 72 zM88 96 L92 92 L88 88 L76 88 L72 92 L76 96 L88 96 zM88 68 L92 64 L88 60 L76 60 L72 64 L76 68 L88 68 zM88 40 L92.11018 36.07186 L88 32 L76 32 L72 36.10779 L76 40 L88 40 zM88 12 L92 8 L88 4 L76 4 L72 8 L76 12 L88 12 zM100 16 L96 12 L92 16 L92 28 L96 32 L100 28 L100 16 zM100 44 L96 40 L92 44 L92 56 L96 60 L100 56 L100 44 zM100 72 L96 68 L92 72 L92 84 L96 88 L100 84 L100 72 z" />
<glyph unicode="➗" horiz-adv-x="76" d="M44.63369 11.72315 Q44.08638 10.42777 43.09227 9.41625 Q42.12668 8.4291 40.78539 7.87484 Q39.49495 7.35527 38.06423 7.33356 Q36.67326 7.3206 35.34306 7.87484 Q34.05282 8.39508 33.03616 9.41625 Q32.04363 10.39065 31.49476 11.72315 Q30.94996 13.00347 30.95348 14.44432 Q30.94107 15.83474 31.49476 17.16548 Q32.01444 18.45694 33.03616 19.47236 Q34.01063 20.46263 35.34306 21.01378 Q36.62471 21.56206 38.06423 21.55506 Q39.45092 21.5632 40.78539 21.01378 Q42.08427 20.4978 43.09227 19.47236 Q44.0736 18.49509 44.63369 17.16548 Q45.19134 15.88327 45.17497 14.44432 Q45.18167 13.02009 44.63369 11.72315 zM44.63369 82.83426 Q44.08638 81.53888 43.09227 80.52736 Q42.12668 79.54021 40.78539 78.98596 Q39.49495 78.46638 38.06423 78.44468 Q36.67326 78.43172 35.34306 78.98596 Q34.05282 79.50619 33.03616 80.52736 Q32.04363 81.50176 31.49476 82.83426 Q30.94996 84.11458 30.95348 85.55543 Q30.94107 86.94585 31.49476 88.27659 Q32.01444 89.56805 33.03616 90.58347 Q34.01063 91.57374 35.34306 92.12489 Q36.62471 92.67317 38.06423 92.66617 Q39.45092 92.67431 40.78539 92.12489 Q42.08427 91.60891 43.09227 90.58347 Q44.0736 89.6062 44.63369 88.27659 Q45.19134 86.99438 45.17497 85.55543 Q45.18167 84.1312 44.63369 82.83426 zM62.88889 57.11111 L70 50 L62.88889 42.88889 L13.11111 42.88889 L6 50 L13.11111 57.11111 L62.88889 57.11111 z" />
<glyph unicode="⨉" horiz-adv-x="56" d="M6 34 L20 48 L26 48 L26 42 L12 28 L6 28 L6 34 zM6 72 L12 72 L26 58 L26 52 L20 52 L6 66 L6 72 zM50 28 L44 28 L30 42 L30 48 L36 48 L50 34 L50 28 zM50 66 L36 52 L30 52 L30 58 L44 72 L50 72 L50 66 z" />
</font>
</svg>
