<?xml version="1.0" standalone="no"?>
<svg>
<font id="Sevenish-Bold" horiz-adv-x="27" >
<font-face units-per-em="100" ascent="80" descent="-20" />
<glyph unicode=" " horiz-adv-x="27" d="" />
<glyph unicode="!" horiz-adv-x="24.07241" d="M19.42673 4.93861 Q18.811 3.48131 17.69263 2.34336 Q16.60634 1.23281 15.09738 0.60927 Q13.64565 0.02475 12.03607 0.00033 Q10.47125 -0.01426 8.97476 0.60927 Q7.52324 1.19452 6.37951 2.34336 Q5.2629 3.43955 4.64542 4.93861 Q4.03252 6.37897 4.03648 7.99992 Q4.02253 9.56414 4.64542 11.06123 Q5.23006 12.51414 6.37951 13.65648 Q7.47578 14.77054 8.97476 15.39058 Q10.41662 16.00739 12.03607 15.9995 Q13.59609 16.00867 15.09738 15.39058 Q16.55863 14.8101 17.69263 13.65648 Q18.79662 12.55704 19.42673 11.06123 Q20.05409 9.61875 20.03565 7.99992 Q20.04319 6.39767 19.42673 4.93861 zM20 30 L12 22 L4 30 L4 90 L12 98 L20 90 L20 30 z" />
<glyph unicode="&#x22;" horiz-adv-x="44" d="M20 100 L20 88 L12 80 L4 88 L4 100 L12 108 L20 100 zM40 100 L40 88 L32 80 L24 88 L24 100 L32 108 L40 100 z" />
<glyph unicode="#" horiz-adv-x="108.18204" d="M45.92814 10 L38 2 L30.11018 9.96407 L30.11018 21.96407 L38.11018 30.05869 L46.11018 21.96407 L45.92814 10 zM26 42.09462 L34.11018 34.05869 L26.11018 25.96407 L14.11018 25.96407 L6 34.09462 L14.11018 41.96407 L26 42.09462 zM46.07425 46.106 L38.14611 38.106 L30.25629 46.07007 L30.11018 53.96407 L38.11018 62.05869 L46.11018 53.96407 L46.07425 46.106 zM26 74 L34.11018 65.96407 L26.11018 57.86945 L14.11018 57.86945 L6 66 L14.11018 73.86945 L26 74 zM46.11018 77.96407 L38.18204 69.96407 L30.29222 77.92814 L30 89.90538 L38 98 L46 89.90538 L46.11018 77.96407 zM57.88982 74.03593 L66 66 L58 57.90538 L50.22036 57.90538 L42.11018 66.03593 L50.22036 73.90538 L57.88982 74.03593 zM57.88982 42.13055 L66 34.09462 L58 26 L50.22036 26 L42.11018 34.13055 L50.22036 42 L57.88982 42.13055 zM77.81796 10.03593 L69.88982 2.03593 L62 10 L62 22 L70 30.09462 L78 22 L77.81796 10.03593 zM77.96407 46.14193 L70.03593 38.14193 L62.14611 46.106 L62 54 L70 62.09462 L78 54 L77.96407 46.14193 zM78 78 L70.07186 70 L62.18204 77.96407 L61.88982 89.94131 L69.88982 98.03593 L77.88982 89.94131 L78 78 zM93.88982 74.03593 L102 66 L94 57.90538 L82 57.90538 L73.88982 66.03593 L82 73.90538 L93.88982 74.03593 zM93.88982 42.13055 L102 34.09462 L94 26 L82 26 L73.88982 34.13055 L82 42 L93.88982 42.13055 z" />
<glyph unicode="$" horiz-adv-x="68" d="M44 14 L52 6 L44 -2 L24 -2 L16 6 L24 14 L44 14 zM64.03593 17.95269 L56.03593 9.95269 L48 18 L48.03593 37.68922 L56.03593 45.95269 L64 38 L64.03593 17.95269 zM43.88982 57.98862 L51.88982 49.98862 L43.88982 41.98862 L23.88982 41.98862 L15.88982 49.98862 L23.88982 57.98862 L43.88982 57.98862 zM20 62.04731 L12 54.04731 L3.96407 62.09462 L4 81.78384 L12 90.04731 L19.96407 82.09462 L20 62.04731 zM43.88982 102.03593 L51.88982 94.03593 L44.32769 85.90106 L23.88982 86.03593 L15.88982 94.03593 L24.13033 101.99975 L43.88982 102.03593 zM64 80 L56 72 L47.96407 80.04731 L48 82 L56 90 L64 82 L64 80 zM20.14072 18 L12.14072 10 L4.10479 18.04731 L4 20 L12 28.26347 L20 20 L20.14072 18 zM26 112 L34 120 L42 112 L42 112 L34 104 L26 112 L26 112 zM26 -12 L34 -4 L42 -12 L42 -12 L34 -20 L26 -12 L26 -12 z" />
<glyph unicode="%" horiz-adv-x="67.18778" d="M19.60059 66.68436 Q19.136 65.58478 18.29216 64.72616 Q17.47252 63.88822 16.33397 63.41774 Q15.23859 62.9767 14.02412 62.95828 Q12.84341 62.94727 11.71427 63.41774 Q10.61905 63.85933 9.75607 64.72616 Q8.91356 65.55327 8.44765 66.68436 Q7.9852 67.77115 7.98819 68.99421 Q7.97766 70.17446 8.44765 71.30406 Q8.88878 72.40032 9.75607 73.26225 Q10.58324 74.10284 11.71427 74.57068 Q12.80219 75.03608 14.02412 75.03013 Q15.2012 75.03705 16.33397 74.57068 Q17.43652 74.13269 18.29216 73.26225 Q19.12515 72.43269 19.60059 71.30406 Q20.07395 70.21566 20.06004 68.99421 Q20.06573 67.78526 19.60059 66.68436 zM56.70211 26.85493 Q56.23752 25.75535 55.39368 24.89673 Q54.57404 24.05879 53.43549 23.58831 Q52.34011 23.14727 51.12564 23.12885 Q49.94493 23.11784 48.81579 23.58831 Q47.72057 24.0299 46.85759 24.89673 Q46.01508 25.72384 45.54917 26.85493 Q45.08672 27.94172 45.08971 29.16478 Q45.07918 30.34503 45.54917 31.47463 Q45.9903 32.57089 46.85759 33.43282 Q47.68476 34.27341 48.81579 34.74125 Q49.90371 35.20665 51.12564 35.2007 Q52.30272 35.20762 53.43549 34.74125 Q54.53804 34.30326 55.39368 33.43282 Q56.22667 32.60326 56.70211 31.47463 Q57.17547 30.38623 57.16156 29.16478 Q57.16725 27.95583 56.70211 26.85493 zM14.48528 21.39427 L6 21.39427 L6 29.87955 L52.7025 76.58205 L61.18778 76.58205 L61.18778 68.09677 L14.48528 21.39427 z" />
<glyph unicode="&#x26;" horiz-adv-x="78.46804" d="M24.44364 13.22831 L24.44364 4.74303 L15.95835 4.74303 L6 14.65057 L6 23.13585 L14.48528 23.13585 L24.44364 13.22831 zM15.84064 47.18553 L24.32592 47.18553 L24.32592 38.70024 L14.50138 28.77661 L6.01609 28.77661 L6.01609 37.26189 L15.84064 47.18553 zM39.88227 23.1439 L48.36755 23.1439 L48.36755 14.65861 L38.54301 4.73498 L30.05772 4.73498 L30.05772 13.22026 L39.88227 23.1439 zM72.46804 13.23635 L72.46804 4.75107 L63.98276 4.75107 L54.0244 14.65861 L54.0244 23.1439 L62.50968 23.1439 L72.46804 13.23635 zM48.3595 37.34489 L48.3595 28.85961 L39.87422 28.85961 L29.91586 38.76715 L29.91586 47.25243 L38.40115 47.25243 L48.3595 37.34489 zM24.37673 61.37847 L24.37673 52.89319 L15.89145 52.89319 L6.04446 62.896 L6.04446 71.38128 L14.52974 71.38128 L24.37673 61.37847 zM15.9664 95.19383 L24.45168 95.19383 L24.45168 86.70855 L14.49333 76.91873 L6.00805 76.91873 L6.00805 85.40401 L15.9664 95.19383 zM39.83781 71.06498 L48.32309 71.06498 L48.32309 62.5797 L38.36474 52.78988 L29.87946 52.78988 L29.87946 61.27516 L39.83781 71.06498 zM63.87944 47.02335 L72.36472 47.02335 L72.36472 38.53807 L62.40637 28.74825 L53.92109 28.74825 L53.92109 37.23353 L63.87944 47.02335 zM48.3739 85.25793 L48.3739 76.77265 L39.88862 76.77265 L30.04163 86.77546 L30.04163 95.26074 L38.52691 95.26074 L48.3739 85.25793 z" />
<glyph unicode="'" horiz-adv-x="24" d="M20 100 L20 88 L12 80 L4 88 L4 100 L12 108 L20 100 z" />
<glyph unicode="(" horiz-adv-x="43.79899" d="M18 16 L12 10 L6 16 L6 84.04731 L12 90.04731 L18 84.04731 L18 16 zM37.79899 101.31371 L26.48528 90 L18 90 L18 98.48528 L29.31371 109.79899 L37.79899 109.79899 L37.79899 101.31371 zM18 9.99899 L26.48528 9.99899 L37.79899 -1.31472 L37.79899 -9.8 L29.31371 -9.8 L18 1.51371 L18 9.99899 z" />
<glyph unicode=")" horiz-adv-x="43.79899" d="M25.79899 84.04731 L31.79899 90.04731 L37.79899 84.04731 L37.79899 16 L31.79899 10 L25.79899 16 L25.79899 84.04731 zM6 109.79899 L14.48528 109.79899 L25.79899 98.48528 L25.79899 90 L17.31371 90 L6 101.31371 L6 109.79899 zM25.79899 1.51371 L14.48528 -9.8 L6 -9.8 L6 -1.31472 L17.31371 9.99899 L25.79899 9.99899 L25.79899 1.51371 z" />
<glyph unicode="*" horiz-adv-x="72.87046" d="M42.43381 60 L36.43381 54 L30.43381 60 L30.43381 76 L36.43381 82 L42.43381 76 L42.43381 60 zM25.70185 45.43654 L34.08267 46.76393 L35.41006 38.38312 L26.00549 25.43885 L17.62468 24.11146 L16.29729 32.49227 L25.70185 45.43654 zM28.77735 58.79651 L32.62958 51.23607 L25.06914 47.38383 L9.85224 52.3281 L6 59.88854 L13.56044 63.74078 L28.77735 58.79651 zM47.80132 47.38476 L40.24088 51.23699 L44.09312 58.79743 L59.31002 63.74171 L66.87046 59.88947 L63.01823 52.32903 L47.80132 47.38476 zM37.45756 38.38312 L38.78495 46.76393 L47.16576 45.43654 L56.57033 32.49227 L55.24294 24.11146 L46.86212 25.43885 L37.45756 38.38312 z" />
<glyph unicode="+" horiz-adv-x="76" d="M46 26 L38 18 L30 26 L30 38 L38 46 L46 38 L46 26 zM26 58 L34 50 L26 42 L14 42 L6 50 L14 58 L26 58 zM46 62 L38 54 L30 62 L30 74 L38 82 L45.82036 74.12874 L46 62 zM62 58 L70 50 L62 42 L50 42 L42 50 L50 58 L62 58 z" />
<glyph unicode="," horiz-adv-x="31.79899" d="M25.79899 3.31371 L14.48528 -8 L6 -8 L6 0.48528 L17.31371 11.79899 L25.79899 11.79899 L25.79899 3.31371 z" />
<glyph unicode="-" horiz-adv-x="48" d="M34 58 L42 49.98862 L34 42 L14 42 L6 49.98862 L14 58 L34 58 z" />
<glyph unicode="." horiz-adv-x="24.07241" d="M19.42673 4.93861 Q18.811 3.48131 17.69263 2.34336 Q16.60634 1.23281 15.09738 0.60927 Q13.64565 0.02475 12.03607 0.00033 Q10.47125 -0.01426 8.97476 0.60927 Q7.52324 1.19452 6.37951 2.34336 Q5.2629 3.43955 4.64542 4.93861 Q4.03252 6.37897 4.03648 7.99992 Q4.02253 9.56414 4.64542 11.06123 Q5.23006 12.51414 6.37951 13.65648 Q7.47578 14.77054 8.97476 15.39058 Q10.41662 16.00739 12.03607 15.9995 Q13.59609 16.00867 15.09738 15.39058 Q16.55863 14.8101 17.69263 13.65648 Q18.79662 12.55704 19.42673 11.06123 Q20.05409 9.61875 20.03565 7.99992 Q20.04319 6.39767 19.42673 4.93861 z" />
<glyph unicode="/" horiz-adv-x="60.3923" d="M14.3923 10.62693 L6.19615 8.43078 L4 16.62693 L46 89.37307 L54.19615 91.56922 L56.3923 83.37307 L14.3923 10.62693 z" />
<glyph unicode="0" horiz-adv-x="68" d="M44 14 L52 6 L44 -2 L24.11018 -2.03593 L16 6 L24 14 L44 14 zM20 18 L12 10 L3.96407 18.04731 L3.96407 38 L12 46 L20 38 L20 18 zM64.03593 17.95269 L56.03593 9.95269 L48 18 L48 37.95269 L56.03593 45.95269 L64.03593 37.95269 L64.03593 17.95269 zM20 62.04731 L12 54.04731 L3.96407 62.09462 L3.96407 82.04731 L12 90.04731 L20 82.04731 L20 62.04731 zM64.03593 62 L56.03593 54 L48 62.04731 L48 82 L56.03593 90 L64.03593 82 L64.03593 62 zM43.88982 102.03593 L51.88982 94.03593 L43.88982 86.03593 L24 86 L15.88982 94.03593 L23.88982 102.03593 L43.88982 102.03593 z" />
<glyph unicode="1" horiz-adv-x="68" d="M64.03593 17.95269 L56.03593 9.95269 L48 18 L48 37.95269 L56.03593 45.95269 L64.03593 37.95269 L64.03593 17.95269 zM64.03593 62 L56.03593 54 L48 62.04731 L48 82 L56.03593 90 L64.03593 82 L64.03593 62 z" />
<glyph unicode="2" horiz-adv-x="68" d="M44 14 L52 6 L44 -2 L24.11018 -2.03593 L16 6 L24 14 L44 14 zM20 18 L12 10 L3.96407 18.04731 L3.96407 38 L12 46 L20 38 L20 18 zM43.88982 57.98862 L51.88982 49.98862 L43.88982 41.98862 L24 41.95269 L15.88982 49.98862 L23.88982 57.98862 L43.88982 57.98862 zM64.03593 62 L56.03593 54 L48 62.04731 L48 82 L56.03593 90 L64.03593 82 L64.03593 62 zM43.88982 102.03593 L51.88982 94.03593 L43.88982 86.03593 L24 86 L15.88982 94.03593 L23.88982 102.03593 L43.88982 102.03593 z" />
<glyph unicode="3" horiz-adv-x="68" d="M44 14 L52 6 L44 -2 L24.11018 -2.03593 L16 6 L24 14 L44 14 zM64.03593 17.95269 L56.03593 9.95269 L48 18 L48 37.95269 L56.03593 45.95269 L64.03593 37.95269 L64.03593 17.95269 zM43.88982 57.98862 L51.88982 49.98862 L43.88982 41.98862 L24 41.95269 L15.88982 49.98862 L23.88982 57.98862 L43.88982 57.98862 zM64.03593 62 L56.03593 54 L48 62.04731 L48 82 L56.03593 90 L64.03593 82 L64.03593 62 zM43.88982 102.03593 L51.88982 94.03593 L43.88982 86.03593 L24 86 L15.88982 94.03593 L23.88982 102.03593 L43.88982 102.03593 z" />
<glyph unicode="4" horiz-adv-x="68" d="M64.03593 17.95269 L56.03593 9.95269 L48 18 L48 37.95269 L56.03593 45.95269 L64.03593 37.95269 L64.03593 17.95269 zM43.88982 57.98862 L51.88982 49.98862 L43.88982 41.98862 L24 41.95269 L15.88982 49.98862 L23.88982 57.98862 L43.88982 57.98862 zM20 62.04731 L12 54.04731 L3.96407 62.09462 L3.96407 82.04731 L12 90.04731 L20 82.04731 L20 62.04731 zM64.03593 62 L56.03593 54 L48 62.04731 L48 82 L56.03593 90 L64.03593 82 L64.03593 62 z" />
<glyph unicode="5" horiz-adv-x="68" d="M44 14 L52 6 L44 -2 L24.11018 -2.03593 L16 6 L24 14 L44 14 zM64.03593 17.95269 L56.03593 9.95269 L48 18 L48 37.95269 L56.03593 45.95269 L64.03593 37.95269 L64.03593 17.95269 zM43.88982 57.98862 L51.88982 49.98862 L43.88982 41.98862 L24 41.95269 L15.88982 49.98862 L23.88982 57.98862 L43.88982 57.98862 zM20 62.04731 L12 54.04731 L3.96407 62.09462 L3.96407 82.04731 L12 90.04731 L20 82.04731 L20 62.04731 zM43.88982 102.03593 L51.88982 94.03593 L43.88982 86.03593 L24 86 L15.88982 94.03593 L23.88982 102.03593 L43.88982 102.03593 z" />
<glyph unicode="6" horiz-adv-x="68" d="M44 14 L52 6 L44 -2 L24.11018 -2.03593 L16 6 L24 14 L44 14 zM20 18 L12 10 L3.96407 18.04731 L3.96407 38 L12 46 L20 38 L20 18 zM64.03593 17.95269 L56.03593 9.95269 L48 18 L48 37.95269 L56.03593 45.95269 L64.03593 37.95269 L64.03593 17.95269 zM43.88982 57.98862 L51.88982 49.98862 L43.88982 41.98862 L24 41.95269 L15.88982 49.98862 L23.88982 57.98862 L43.88982 57.98862 zM20 62.04731 L12 54.04731 L3.96407 62.09462 L3.96407 82.04731 L12 90.04731 L20 82.04731 L20 62.04731 zM43.88982 102.03593 L51.88982 94.03593 L43.88982 86.03593 L24 86 L15.88982 94.03593 L23.88982 102.03593 L43.88982 102.03593 z" />
<glyph unicode="7" horiz-adv-x="68" d="M64.03593 17.95269 L56.03593 9.95269 L48 18 L48 37.95269 L56.03593 45.95269 L64.03593 37.95269 L64.03593 17.95269 zM64.03593 62 L56.03593 54 L48 62.04731 L48 82 L56.03593 90 L64.03593 82 L64.03593 62 zM43.88982 102.03593 L51.88982 94.03593 L43.88982 86.03593 L24 86 L15.88982 94.03593 L23.88982 102.03593 L43.88982 102.03593 z" />
<glyph unicode="8" horiz-adv-x="68" d="M44 14 L52 6 L44 -2 L24.11018 -2.03593 L16 6 L24 14 L44 14 zM20 18 L12 10 L3.96407 18.04731 L3.96407 38 L12 46 L20 38 L20 18 zM64.03593 17.95269 L56.03593 9.95269 L48 18 L48 37.95269 L56.03593 45.95269 L64.03593 37.95269 L64.03593 17.95269 zM43.88982 57.98862 L51.88982 49.98862 L43.88982 41.98862 L24 41.95269 L15.88982 49.98862 L23.88982 57.98862 L43.88982 57.98862 zM20 62.04731 L12 54.04731 L3.96407 62.09462 L3.96407 82.04731 L12 90.04731 L20 82.04731 L20 62.04731 zM64.03593 62 L56.03593 54 L48 62.04731 L48 82 L56.03593 90 L64.03593 82 L64.03593 62 zM43.88982 102.03593 L51.88982 94.03593 L43.88982 86.03593 L24 86 L15.88982 94.03593 L23.88982 102.03593 L43.88982 102.03593 z" />
<glyph unicode="9" horiz-adv-x="68" d="M44 14 L52 6 L44 -2 L24.11018 -2.03593 L16 6 L24 14 L44 14 zM64.03593 17.95269 L56.03593 9.95269 L48 18 L48 37.95269 L56.03593 45.95269 L64.03593 37.95269 L64.03593 17.95269 zM43.88982 57.98862 L51.88982 49.98862 L43.88982 41.98862 L24 41.95269 L15.88982 49.98862 L23.88982 57.98862 L43.88982 57.98862 zM20 62.04731 L12 54.04731 L3.96407 62.09462 L3.96407 82.04731 L12 90.04731 L20 82.04731 L20 62.04731 zM64.03593 62 L56.03593 54 L48 62.04731 L48 82 L56.03593 90 L64.03593 82 L64.03593 62 zM43.88982 102.03593 L51.88982 94.03593 L43.88982 86.03593 L24 86 L15.88982 94.03593 L23.88982 102.03593 L43.88982 102.03593 z" />
<glyph unicode=":" horiz-adv-x="27.9999" d="M21.39047 68.93854 Q20.77474 67.48124 19.65637 66.34329 Q18.57008 65.23274 17.06112 64.6092 Q15.60939 64.02468 13.99981 64.00026 Q12.43499 63.98567 10.9385 64.6092 Q9.48698 65.19445 8.34325 66.34329 Q7.22664 67.43948 6.60916 68.93854 Q5.99626 70.3789 6.00022 71.99985 Q5.98627 73.56407 6.60916 75.06116 Q7.1938 76.51407 8.34325 77.65641 Q9.43952 78.77047 10.9385 79.39051 Q12.38036 80.00732 13.99981 79.99943 Q15.55983 80.0086 17.06112 79.39051 Q18.52237 78.81003 19.65637 77.65641 Q20.76036 76.55697 21.39047 75.06116 Q22.01783 73.61868 21.99939 71.99985 Q22.00693 70.3976 21.39047 68.93854 zM21.39047 24.93854 Q20.77474 23.48124 19.65637 22.34329 Q18.57008 21.23274 17.06112 20.6092 Q15.60939 20.02468 13.99981 20.00026 Q12.43499 19.98567 10.9385 20.6092 Q9.48698 21.19445 8.34325 22.34329 Q7.22664 23.43948 6.60916 24.93854 Q5.99626 26.3789 6.00022 27.99985 Q5.98627 29.56407 6.60916 31.06116 Q7.1938 32.51407 8.34325 33.65641 Q9.43952 34.77047 10.9385 35.39051 Q12.38036 36.00732 13.99981 35.99943 Q15.55983 36.0086 17.06112 35.39051 Q18.52237 34.81003 19.65637 33.65641 Q20.76036 32.55697 21.39047 31.06116 Q22.01783 29.61868 21.99939 27.99985 Q22.00693 26.3976 21.39047 24.93854 z" />
<glyph unicode=";" horiz-adv-x="31.87241" d="M25.41257 69.72628 Q24.94798 68.6267 24.10414 67.76808 Q23.2845 66.93014 22.14595 66.45966 Q21.05057 66.01862 19.8361 66.0002 Q18.65539 65.98919 17.52625 66.45966 Q16.43103 66.90125 15.56805 67.76808 Q14.72554 68.59519 14.25963 69.72628 Q13.79718 70.81307 13.80017 72.03613 Q13.78964 73.21638 14.25963 74.34598 Q14.70076 75.44224 15.56805 76.30417 Q16.39522 77.14476 17.52625 77.6126 Q18.61417 78.078 19.8361 78.07205 Q21.01318 78.07897 22.14595 77.6126 Q23.2485 77.17461 24.10414 76.30417 Q24.93713 75.47461 25.41257 74.34598 Q25.88593 73.25758 25.87202 72.03613 Q25.87771 70.82718 25.41257 69.72628 zM25.79899 25.51371 L14.48528 14.2 L6 14.2 L6 22.68528 L17.31371 33.99899 L25.79899 33.99899 L25.79899 25.51371 z" />
<glyph unicode="&#x3c;" horiz-adv-x="43.17692" d="M28.98077 74.3923 C33.07884 73.29423 34.44487 72.9282 37.17692 72.19615 C36.09067 68.07759 35.72859 66.70474 35.00442 63.95903 Q24.63577 57.91806 14.19616 52 C11.46411 52.73205 10.09808 53.09807 6.00001 54.19615 C6.73206 56.9282 7.09808 58.29422 8.19616 62.3923 C18.58847 68.3923 22.05257 70.3923 28.98077 74.3923 zM6 45.71856 L14.19615 47.91472 L34.98076 35.91472 L37.17691 27.71856 L28.98076 25.52241 L8.19615 37.52241 L6 45.71856 z" />
<glyph unicode="=" horiz-adv-x="48" d="M14 42 L6 34 L14 26 L34 26 L42 34 L34 42 L14 42 zM14 74 L6 66 L14 58 L34 58 L42 66 L34 74 L14 74 z" />
<glyph unicode="&#x3e;" horiz-adv-x="43.17692" d="M34.98076 62.3923 L37.17691 54.19615 L28.98076 52 Q18.54115 57.91806 8.1725 63.95903 C7.44833 66.70474 7.08625 68.07759 6 72.19615 C8.73205 72.9282 10.09808 73.29423 14.19615 74.3923 C21.12435 70.3923 24.58845 68.3923 34.98076 62.3923 zM14.19615 25.44157 C10.09808 26.53964 8.73205 26.90567 6 27.63772 C7.08625 31.75628 7.44833 33.12913 8.1725 35.87484 Q18.54115 41.91581 28.98076 47.83387 C31.71281 47.10182 33.07884 46.7358 37.17692 45.63772 C36.44487 42.90567 36.07884 41.53965 34.98076 37.44157 C24.58845 31.44157 21.12435 29.44157 14.19615 25.44157 z" />
<glyph unicode="?" horiz-adv-x="68" d="M22 38 L30 46 L38 38 L38 28 L30 20 L22 28 L22 38 zM44 57.95269 L52.2509 49.98862 L44 41.95269 L42 42 L34 50 L41.7491 57.96407 L44 57.95269 zM48.14072 82.04731 L56.14072 90.04731 L64.14072 82.04731 L64.14072 62.04731 L56.14072 54.04731 L48.14072 62.04731 L48.14072 82.04731 zM44 102 L52.2509 94.03593 L44 86 L24.2509 86.03593 L16.2509 94.03593 L24 102 L44 102 zM4 82 L12 90 L20 82 L20 80 L12 72 L4 80 L4 82 zM37.42673 4.93861 Q36.811 3.4813 35.69263 2.34335 Q34.60634 1.2328 33.09738 0.60926 Q31.64565 0.02474 30.03607 0.00033 Q28.47125 -0.01427 26.97476 0.60926 Q25.52324 1.19451 24.37951 2.34335 Q23.2629 3.43954 22.64542 4.93861 Q22.03252 6.37896 22.03648 7.99992 Q22.02253 9.56414 22.64542 11.06123 Q23.23006 12.51413 24.37951 13.65647 Q25.47578 14.77053 26.97476 15.39057 Q28.41662 16.00738 30.03607 15.99949 Q31.59609 16.00866 33.09738 15.39057 Q34.55863 14.81009 35.69263 13.65647 Q36.79662 12.55703 37.42673 11.06123 Q38.05409 9.61874 38.03565 7.99992 Q38.04319 6.39766 37.42673 4.93861 z" />
<glyph unicode="@" horiz-adv-x="108.18204" d="M72 16 L80 8 L72 0 L24 0 L16 8 L24 16 L72 16 zM20 20 L12 12 L4 20 L4 80 L12 88 L20 80 L20 20 zM48.03593 48.04731 L40.03593 40.04731 L32.03593 48.04731 L32 52.09462 L40 60.09462 L48 52.09462 L48.03593 48.04731 zM84 100 L92 92 L84 84 L24 84 L16 92 L24 100 L84 100 zM56.11018 72.03593 L64.11018 64.03593 L56.11018 56.03593 L52 56.07186 L44 64.07186 L52 72.07186 L56.11018 72.03593 zM56.11018 44.03593 L64.11018 36.03593 L56.11018 28.03593 L52 28.07186 L44 36.07186 L52 44.07186 L56.11018 44.03593 zM76.14611 48.08324 L68.14611 40.08324 L60.14611 48.08324 L60.11018 52.13055 L68.11018 60.13055 L76.11018 52.13055 L76.14611 48.08324 zM84.11018 44.03593 L92.11018 36.03593 L84.11018 28.03593 L80 28.07186 L72 36.07186 L80 44.07186 L84.11018 44.03593 zM104 48 L96 40 L88 48 L88 80 L96 88 L104 80 L104 48 z" />
<glyph unicode="A" horiz-adv-x="68" d="M38.11018 57.96407 L46 50 L38 42 L30 42 L22 50 L30 58 L38.11018 57.96407 zM20 20 L12 12 L4 20 L4 82 L12 90.04731 L20 82 L20 20 zM44 102 L51.88982 94.03593 L43.88982 86.03593 L23.88982 86.03593 L15.88982 94.03593 L23.77964 102.02455 L44 102 zM64 20 L56 12 L48 20 L48 82 L56 90.04731 L64 82 L64 20 z" />
<glyph unicode="B" horiz-adv-x="68" d="M20 6 L12 -2 L4 6 L4.21078 93.98503 L12 102 L20 94 L20 6 zM44 102 L51.88982 94.03593 L44 86 L30 86 L22 94 L30 102 L44 102 zM44.21078 57.98503 L52.1006 50.02096 L44.21078 41.98503 L30.21078 41.98503 L22.21078 49.98503 L30.21078 57.98503 L44.21078 57.98503 zM44 14 L51.88982 6.03593 L44 -2 L30 -2 L22 6 L30 14 L44 14 zM64 82 L64 62 L56 54 L48 62 L48 82 L56 90 L64 82 zM64 38 L64 18 L56 10 L48 18 L48 38 L56 46 L64 38 z" />
<glyph unicode="C" horiz-adv-x="58" d="M44 14 L52 6 L44.11018 -2.03593 L24 -2 L16 6 L24 14 L44 14 zM20 18 L12 10 L4 18 L4 82 L12 90.04731 L20 82 L20 18 zM43.88982 102.03593 L51.88982 94.03593 L44 86 L23.88982 86.03593 L15.88982 94.03593 L23.88982 102.03593 L43.88982 102.03593 z" />
<glyph unicode="D" horiz-adv-x="68" d="M44.11018 13.96407 L52 6 L44 -2 L30 -2 L22 6 L30 14 L44.11018 13.96407 zM19.5 6 L11.5 -2 L3.5 6 L3.5 93.95269 L11.5 102 L19.5 93.95269 L19.5 6 zM44 102 L51.88982 94.03593 L43.88982 86.03593 L30 86 L22 94 L30 102 L44 102 zM64 18 L56 10 L48 18 L48 82 L56 90.04731 L64 82 L64 18 z" />
<glyph unicode="E" horiz-adv-x="58" d="M44.00958 13.94311 L51.8994 5.97904 L44.00958 -2.05689 L30 -2 L22 6 L30 14 L44.00958 13.94311 zM20 6 L12 -2 L4 6 L4 94 L12 102 L20 94 L20 6 zM43.8994 101.97904 L51.78922 94.01497 L43.8994 85.97904 L30 86 L22 94 L30 102 L43.8994 101.97904 zM44.11018 57.96407 L52 50 L44.11018 41.96407 L30.21078 41.98503 L22.21078 49.98503 L30.21078 57.98503 L44.11018 57.96407 z" />
<glyph unicode="F" horiz-adv-x="58" d="M20 6 L12 -2 L4 6 L4 94 L12 102 L20 94 L20 6 zM43.78922 102.01497 L51.88982 94.03593 L44 86 L29.78922 86.01497 L21.78922 94.01497 L30 102 L43.78922 102.01497 zM44 58 L52.1006 50.02096 L44.21078 41.98503 L30 42 L22 50 L30.21078 57.98503 L44 58 z" />
<glyph unicode="G" horiz-adv-x="68" d="M64 18 L56.03593 9.95269 L48 18 L48 31.95269 L56 40 L64 32 L64 18 zM56 58 L64 50 L56 42 L38 42 L30 50 L38.22036 57.97545 L56 58 zM19.96407 20.04731 L12 12 L3.96407 20.04731 L4 82 L12 90.04731 L20 82.04731 L19.96407 20.04731 zM48 102 L56 94 L48 86 L23.88982 86.03593 L15.88982 94.03593 L24 102 L48 102 zM44 16 L52 8 L44 0 L24 0 L16 8 L24.11018 15.96407 L44 16 z" />
<glyph unicode="H" horiz-adv-x="68" d="M38 58 L46 50 L38 42 L30 42 L22 50 L30 58 L38 58 zM20 20 L12 12 L4 20 L4 82 L12 90.04731 L20 82 L20 20 zM64 20 L56 12 L48 20 L48 82 L56 90.04731 L64 82 L64 20 z" />
<glyph unicode="I" horiz-adv-x="48.11018" d="M34 14 L42.11018 6 L34 -2 L14 -2 L6.11018 6 L14.11018 13.96407 L34 14 zM32 24 L24 16 L16 24 L16 76 L24 84 L32 76 L32 24 zM33.88982 102.03593 L42 94.03593 L33.88982 86.03593 L13.88982 86.03593 L6 94.03593 L14 102 L33.88982 102.03593 z" />
<glyph unicode="J" horiz-adv-x="68" d="M44 14 L52 6 L44 -2 L24 -2 L16 6 L24 14 L44 14 zM20 18 L12 10 L4 18 L4 25.95269 L12 34 L20 25.95269 L20 18 zM64 18 L56 10 L48 18 L48 82 L56 90.04731 L64 82 L64 18 z" />
<glyph unicode="K" horiz-adv-x="68.19915" d="M18 8 L12 2 L6 8 L6 92 L12 98 L18 92 L18 8 zM31.19915 36.19615 L23.00299 34 L20.80684 42.19615 L51.80684 95.88973 L60.00299 98.08588 L62.19915 89.88973 L31.19915 36.19615 zM62.02849 10.19615 L59.83234 2 L51.63618 4.19615 L35.63618 31.90897 L37.83234 40.10512 L46.02849 37.90897 L62.02849 10.19615 z" />
<glyph unicode="L" horiz-adv-x="58" d="M44 14 L52 6 L44 -2 L30 -2 L22 6 L30 14 L44 14 zM20 6 L12 -2 L4 6 L4 94 L12 102 L20 94 L20 6 z" />
<glyph unicode="M" horiz-adv-x="93.06" d="M6 84 L12 90 L18 84 L18 16 L12 10 L6 16 L6 84 zM22 69.5011 L22 77.98639 L30.48528 77.98639 L44.43688 63.81461 L44.52791 55.45847 L36.03416 55.45 L22 69.5011 zM87.06 16 L81.06 10 L75.06 16 L75.06 84 L81.06 90 L87.06 84 L87.06 16 zM57.02375 55.45 L48.53 55.45847 L48.62103 63.81461 L62.57263 77.98639 L71.05791 77.98639 L71.05791 69.5011 L57.02375 55.45 z" />
<glyph unicode="N" horiz-adv-x="66.53" d="M48.55395 84.03293 L54.53 90 L60.53 84 L60.53 16 L54.53 10 L48.53 16 L48.55395 84.03293 zM6 84 L12 90 L18 84 L18 16 L12 10 L6 16 L6 84 zM22 69.5911 L22 78.07638 L30.48528 78.07638 L44.43688 63.90461 L44.52791 55.54847 L36.03416 55.54 L22 69.5911 z" />
<glyph unicode="O" horiz-adv-x="68" d="M44.11018 13.96407 L52 6 L44 -2 L24 -2 L16 6 L24 14 L44.11018 13.96407 zM20 18 L12 10 L4 18 L4 82 L12 90.04731 L20 82 L20 18 zM44 102 L51.88982 94.03593 L43.88982 86.03593 L23.88982 86.03593 L15.88982 94.03593 L23.88982 102.03593 L44 102 zM64 18 L56 10 L48 18 L48 82 L56 90.04731 L64 82 L64 18 z" />
<glyph unicode="P" horiz-adv-x="68" d="M20 6 L12 -2 L4 6 L4 94 L12 102 L20 94 L20 6 zM43.78922 102.01497 L51.88982 94.03593 L43.78922 86.01497 L29.78922 86.01497 L21.78922 94.01497 L30 102 L43.78922 102.01497 zM44 58 L52.1006 50.02096 L44 42 L30 42 L22 50 L30.21078 57.98503 L44 58 zM48 62 L56 54 L64 62 L64 82 L56 90 L48 82 L48 62 z" />
<glyph unicode="Q" horiz-adv-x="68" d="M36 12 L42 6 L36 0 L22 0 L16 6 L22 12 L36 12 zM18 16 L12 10 L6 16 L6 84.04731 L12 90.04731 L18 84.04731 L18 16 zM45.88982 100.03593 L51.88982 94.03593 L45.88982 88.03593 L21.88982 88.03593 L15.88982 94.03593 L21.88982 100.03593 L45.88982 100.03593 zM62 26 L56 20 L50 26 L50 84.04731 L56 90.04731 L62 84.04731 L62 26 zM44.2 17.7947 L52.68528 17.7947 L63.99899 6.48099 L63.99899 -2.00429 L55.51371 -2.00429 L44.2 9.30942 L44.2 17.7947 z" />
<glyph unicode="R" horiz-adv-x="68" d="M18 8 L12 2 L6 8 L6 92 L12 98 L18 92 L18 8 zM45.88982 100.03593 L51.88982 94.03593 L45.88982 88.03593 L26 88 L20 94 L26 100 L45.88982 100.03593 zM46.1006 56.02096 L52.1006 50.02096 L46.1006 44.02096 L26.21078 43.98503 L20.21078 49.98503 L26.21078 55.98503 L46.1006 56.02096 zM62 60 L56 54 L50 60 L50 60 L50 84 L56 90 L62 84 L62 60 zM22 39.90728 L30.48528 39.90728 L58.76955 11.623 L58.76955 3.13772 L50.28427 3.13772 L22 31.422 L22 39.90728 z" />
<glyph unicode="S" horiz-adv-x="68" d="M44 14 L52 6 L44.11018 -2.03593 L24 -2 L16 6 L24 14 L44 14 zM64 18 L56.03593 9.95269 L47.89521 17.95269 L48 38 L56.03593 45.95269 L64.03593 37.68922 L64 18 zM43.88982 57.98862 L51.88982 49.98862 L44 41.95269 L23.88982 41.98862 L15.88982 49.98862 L23.88982 57.98862 L43.88982 57.98862 zM19.96407 62.09462 L12 54.04731 L3.85928 62.04731 L3.96407 82.09462 L12 90.04731 L20 81.78384 L19.96407 62.09462 zM43.88982 102.03593 L51.88982 94.03593 L44 86 L24 86 L15.88982 94.03593 L23.88982 102.03593 L43.88982 102.03593 zM64 80 L56 72 L48 80 L48 82 L56 90 L64 82 L64 80 zM20 18 L12 10 L4 18 L4 20 L12 28 L20 20 L20 18 z" />
<glyph unicode="T" horiz-adv-x="64" d="M40 22 L32 14 L24 22 L24 76 L32 84 L40 76 L40 22 zM50 102 L58 94 L50 86 L14 86 L6 94 L14 102 L50 102 z" />
<glyph unicode="U" horiz-adv-x="68" d="M44 14 L52 6 L44 -2 L24 -2 L16 6 L24 14 L44 14 zM64 18 L56 10 L48 18 L48 82 L56 90.04731 L64 82 L64 18 zM20 18 L12 10 L4 18 L4 82 L12 90.04731 L20 82 L20 18 z" />
<glyph unicode="V" horiz-adv-x="87.25472" d="M67.79734 84.38634 L75.30989 88.33116 L79.25472 80.81862 L57.25378 10.16482 L49.74124 6.22 L45.79641 13.73255 L67.79734 84.38634 zM41.45831 13.72943 L37.51348 6.21688 L30.00094 10.1617 L8 80.81549 L11.94483 88.32804 L19.45738 84.38322 L41.45831 13.72943 z" />
<glyph unicode="W" horiz-adv-x="138.69427" d="M55.55933 84.86143 L62.69948 89.446 L67.28405 82.30586 L51.52472 10.00341 L44.38458 5.41884 L39.8 12.55899 L55.55933 84.86143 zM35.48406 12.55587 L30.89948 5.41572 L23.75934 10.00029 L8 82.30273 L12.58458 89.44288 L19.72473 84.85831 L35.48406 12.55587 zM118.96955 84.86571 L126.1097 89.45028 L130.69427 82.31014 L114.93494 10.00769 L107.7948 5.42312 L103.21022 12.56327 L118.96955 84.86571 zM98.89428 12.56015 L94.3097 5.42 L87.16956 10.00457 L71.41022 82.30701 L75.9948 89.44716 L83.13495 84.86259 L98.89428 12.56015 z" />
<glyph unicode="X" horiz-adv-x="83.25472" d="M58.14198 93.0119 L66.33813 95.20805 L68.53429 87.0119 L50.53429 55.83498 L42.33813 53.63883 L40.14198 61.83498 L58.14198 93.0119 zM34.3923 62.19615 L32.19615 54 L24 56.19615 L6 87.37307 L8.19615 95.56922 L16.3923 93.37307 L34.3923 62.19615 zM40.14198 37.90976 L42.33813 46.10591 L50.53429 43.90976 L68.53429 12.73284 L66.33813 4.53669 L58.14198 6.73284 L40.14198 37.90976 zM16.3923 6.37167 L8.19615 4.17552 L6 12.37167 L24 43.54859 L32.19615 45.74474 L34.3923 37.54859 L16.3923 6.37167 z" />
<glyph unicode="Y" horiz-adv-x="74.53429" d="M31 47 L37 53 L43 47 L43 11 L37 5 L31 11 L31 47 zM58.14198 93.0119 L66.33813 95.20805 L68.53429 87.0119 L50.53429 55.83498 L42.33813 53.63883 L40.14198 61.83498 L58.14198 93.0119 zM34.3923 62.19615 L32.19615 54 L24 56.19615 L6 87.37307 L8.19615 95.56922 L16.3923 93.37307 L34.3923 62.19615 z" />
<glyph unicode="Z" horiz-adv-x="68" d="M60 12 L66 6 L60 0 L26 0 L20 6 L26 12 L60 12 zM45.88982 100.03593 L51.88982 94.03593 L45.88982 88.03593 L12 88 L6 94 L12 100 L45.88982 100.03593 zM20.19615 10.62693 L12 8.43078 L9.80385 16.62693 L51.80385 89.37307 L60 91.56922 L62.19615 83.37307 L20.19615 10.62693 z" />
<glyph unicode="[" horiz-adv-x="50" d="M20 0 L12 -8 L4 0 L4 100 L12 108 L20 100 L20 0 zM36 92 L30 92 L22 100 L30 108 L36 108 L44 100 L36 92 zM36 -8 L30 -8 L22 0 L30 8 L36 8 L44 0 L36 -8 z" />
<glyph unicode="\" horiz-adv-x="60.3923" d="M4 83.37307 L6.19615 91.56922 L14.3923 89.37307 L56.3923 16.62693 L54.19615 8.43078 L46 10.62693 L4 83.37307 z" />
<glyph unicode="]" horiz-adv-x="50" d="M28 100 L36 108 L44 100 L44 0 L36 -8 L28 0 L28 100 zM4 100 L12 108 L18 108 L26 100 L18 92 L12 92 L4 100 zM4 0 L12 8 L18 8 L26 0 L18 -8 L12 -8 L4 0 z" />
<glyph unicode="^" horiz-adv-x="60.95073" d="M18 97.85339 L26.19615 100.04954 L28.3923 91.85339 Q22.47424 81.41378 16.43327 71.04513 C13.68756 70.32096 12.31471 69.95888 8.19615 68.87263 C7.4641 71.60468 7.09807 72.97071 6 77.06878 C10 83.99698 12 87.46108 18 97.85339 zM55.8123 77.06615 C54.71423 72.96808 54.3482 71.60205 53.61615 68.87 C49.49759 69.95625 48.12474 70.31833 45.37903 71.0425 Q39.33806 81.41115 33.42 91.85076 C34.15205 94.58281 34.51808 95.94884 35.61615 100.04691 C38.3482 99.31486 39.71422 98.94884 43.8123 97.85076 C49.8123 87.45845 51.8123 83.99435 55.8123 77.06615 z" />
<glyph unicode="_" horiz-adv-x="68" d="M60 14 L68 6 L60 -2 L8 -2 L0 6 L8 14 L60 14 z" />
<glyph unicode="`" horiz-adv-x="31.79899" d="M6 103.79899 L14.48528 103.79899 L25.79899 92.48528 L25.79899 84 L17.31371 84 L6 95.31371 L6 103.79899 z" />
<glyph unicode="a" horiz-adv-x="68" d="M44 14 L52 6 L44 -2 L24 -2 L16 6 L24 14 L44 14 zM64 18 L56.03593 9.95269 L48 18 L48 38 L56.03593 45.95269 L64 38 L64 18 zM43.88982 57.98862 L51.88982 49.98862 L44.15329 42.16527 L18 42 L10 50 L18 58 L43.88982 57.98862 zM38 36 L46 28 L38 20 L24 20 L16 28 L24 36 L38 36 zM12 10 L19 17 L12 24 L5 17 L12 10 z" />
<glyph unicode="b" horiz-adv-x="68" d="M20 6 L12 -2 L4 6 L4 94 L12 102 L20 94 L20 6 zM44 58 L52 50 L44.11497 41.997 L30 42 L22 50 L30 58 L44 58 zM44.1006 14.03593 L52.1006 6.03593 L44 -2 L30 -2 L22 6 L30 14 L44.1006 14.03593 zM64 18 L56 10 L48 18 L48 38 L56 46 L64 38 L64 18 z" />
<glyph unicode="c" horiz-adv-x="58" d="M44 14 L52 6 L44 -2 L24 -2 L16 6 L24 14 L44 14 zM20 18 L12 10 L4 18 L4 38 L12 46 L20 38 L20 18 zM44 58 L52 50 L44 42 L24 42 L16 50 L24 58 L44 58 z" />
<glyph unicode="d" horiz-adv-x="68" d="M48 94 L56 102 L64 94 L64 6 L56 -2 L48 6 L48 94 zM38 58 L46 50 L38 42 L23.88503 41.997 L16 50 L24 58 L38 58 zM38 14 L46 6 L38 -2 L24 -2 L15.8994 6.03593 L23.8994 14.03593 L38 14 zM4 38 L12 46 L20 38 L20 18 L12 10 L4 18 L4 38 z" />
<glyph unicode="e" horiz-adv-x="68" d="M25 42 L17 50 L25 58 L45 58 L53 50 L45 42 L25 42 zM5 38 L12.96407 46.04731 L21 38 L21 18 L12.96407 10.04731 L5 18 L5 38 zM25.11018 -1.98862 L17.11018 6.01138 L24.84671 13.83473 L51 14 L59 6 L51 -2 L25.11018 -1.98862 zM31 20 L23 28 L31 36 L45 36 L53 28 L45 20 L31 20 zM57 46 L50 39 L57 32 L64 39 L57 46 z" />
<glyph unicode="f" horiz-adv-x="60" d="M34 62.04731 L26 54.04731 L18 62 L18 82 L26 90 L34 82 L34 62.04731 zM34 18 L26 10 L18 17.95269 L18 38 L26 46 L34 38 L34 18 zM46 102 L54 94 L46 86 L38 86 L30 94 L38 102 L46 102 zM14 58 L6 50 L14 42 L22 50 L14 58 zM38 58 L30 50 L38 42 L46 50 L38 58 z" />
<glyph unicode="g" horiz-adv-x="68.03593" d="M38.11018 14.01138 L46 6 L38.11018 -1.98862 L24 -2 L16 6 L24 14 L38.11018 14.01138 zM20 18 L12 10 L4 18 L4 38 L12 46 L20 38 L20 18 zM64 -10 L56 -18 L48 -10 L48 38 L56 46 L64 38 L64 -10 zM44 58 L51.88982 49.98862 L44 42 L23.88982 41.98862 L15.88982 49.98862 L23.88982 57.98862 L44 58 zM44.11018 -13.98862 L52 -22 L44.11018 -29.98862 L14 -30 L6 -22 L14 -14 L44.11018 -13.98862 z" />
<glyph unicode="h" horiz-adv-x="68" d="M20 18 L12 10 L4 18 L4 94 L12 102 L20 94 L20 18 zM44 58 L52.1006 50.03593 L44 42 L30 42 L22 50 L30 58 L44 58 zM48 18 L56 10 L64 18 L64 38 L56 46 L48 38 L48 18 z" />
<glyph unicode="i" horiz-adv-x="24.07247" d="M20 18 L12 10 L4 18 L4 38 L12 46 L20 38 L20 18 zM19.42679 69.02216 Q18.81106 67.56485 17.69269 66.4269 Q16.6064 65.31635 15.09744 64.69281 Q13.64571 64.10829 12.03613 64.08388 Q10.47131 64.06928 8.97482 64.69281 Q7.5233 65.27806 6.37957 66.4269 Q5.26296 67.52309 4.64548 69.02216 Q4.03258 70.46251 4.03654 72.08347 Q4.02259 73.64769 4.64548 75.14478 Q5.23012 76.59768 6.37957 77.74002 Q7.47584 78.85408 8.97482 79.47412 Q10.41668 80.09093 12.03613 80.08304 Q13.59615 80.09221 15.09744 79.47412 Q16.55869 78.89364 17.69269 77.74002 Q18.79668 76.64058 19.42679 75.14478 Q20.05415 73.70229 20.03571 72.08347 Q20.04325 70.48121 19.42679 69.02216 z" />
<glyph unicode="j" horiz-adv-x="60.1287" d="M56 -10 L48 -18 L40 -10 L40 38 L48 46 L56 38 L56 -10 zM36 -14 L44 -22 L36 -30 L24 -30 L15.94371 -22 L24 -14 L36 -14 zM55.39047 68.93854 Q54.77473 67.48124 53.65637 66.34329 Q52.57008 65.23274 51.06112 64.6092 Q49.60939 64.02468 47.99981 64.00026 Q46.43498 63.98567 44.9385 64.6092 Q43.48698 65.19445 42.34324 66.34329 Q41.22664 67.43948 40.60916 68.93854 Q39.99626 70.3789 40.00022 71.99985 Q39.98627 73.56407 40.60916 75.06116 Q41.1938 76.51407 42.34324 77.65641 Q43.43952 78.77047 44.9385 79.39051 Q46.38035 80.00732 47.99981 79.99943 Q49.55983 80.0086 51.06112 79.39051 Q52.52236 78.81003 53.65637 77.65641 Q54.76035 76.55697 55.39047 75.06116 Q56.01783 73.61868 55.99939 71.99985 Q56.00693 70.3976 55.39047 68.93854 zM12 -4 L19 -11 L12 -18 L5 -11 L12 -4 z" />
<glyph unicode="k" horiz-adv-x="58" d="M18 6 L12 0 L6 6 L6 84 L12 90 L18 84 L18 6 zM39.97056 55.8696 L48.45584 55.8696 L48.45584 47.38432 L31.48528 30.41375 L23 30.41375 L23 38.89904 L39.97056 55.8696 zM23.03144 16.97056 L23.03144 25.45585 L31.51672 25.45585 L48.48728 8.48528 L48.48728 0 L40.002 0 L23.03144 16.97056 z" />
<glyph unicode="l" horiz-adv-x="24.10778" d="M20 18 L12 10 L4 18 L4 82 L12 90 L20 82 L20 18 z" />
<glyph unicode="m" horiz-adv-x="80.0021" d="M19.9979 16 L12 10 L3.9979 18 L4 38 L12 46 L19.9979 38 L19.9979 16 zM47.9979 15.95269 L40 9.95269 L31.9979 17.95269 L32 37.95269 L40 45.95269 L47.9979 37.95269 L47.9979 15.95269 zM28 58 L36.11018 50.01138 L28 42 L24 42 L16 50 L24 58 L28 58 zM76 16 L68.0021 10 L60 18 L60.0021 38 L68.0021 46 L76 38 L76 16 zM56 58 L64.11018 50.01138 L56 42 L52 42 L44 50 L52 58 L56 58 z" />
<glyph unicode="n" horiz-adv-x="68" d="M20 18 L12 10 L4 18 L4 38 L12 46 L20 38 L20 18 zM64 18 L56.03593 9.95269 L48 18 L48 38 L56.03593 45.95269 L64 38 L64 18 zM44 58 L51.88982 49.98862 L44 42 L24 42 L15.88982 49.98862 L24 58 L44 58 z" />
<glyph unicode="o" horiz-adv-x="68" d="M44 14 L52 6 L44.11018 -1.98862 L24 -2 L16 6 L24 14 L44 14 zM20 18 L12 10 L3.96407 18.04731 L3.96407 38.04731 L12 46 L19.96407 38.04731 L20 18 zM64.03593 17.95269 L56.03593 9.95269 L48 18 L48 38 L56.03593 45.95269 L64 38 L64.03593 17.95269 zM43.88982 57.98862 L51.88982 49.98862 L44 42 L23.88982 41.98862 L15.88982 49.98862 L23.88982 57.98862 L43.88982 57.98862 z" />
<glyph unicode="p" horiz-adv-x="68" d="M20 -20 L12 -28 L4 -20 L4 50 L12 58 L20 50 L20 -20 zM30 -2 L22 6 L30 14 L44 14 L52 6 L44 -2 L30 -2 zM30 42 L22 50 L30 58 L44 58 L52 50 L44 42 L30 42 zM56 46 L64 38 L64 18 L56 10 L48 18 L48 38 L56 46 z" />
<glyph unicode="q" horiz-adv-x="98" d="M48 46 L56 54 L64 46 L64 -10 L56 -18 L48 -10 L48 46 zM23.8994 -2.03593 L15.8994 5.96407 L23.8994 13.96407 L37.78922 14 L46 6 L37.78922 -2 L23.8994 -2.03593 zM24.11018 41.96407 L16.11018 49.96407 L24.11018 57.96407 L38 58 L46.21078 50 L38 42 L24.11018 41.96407 zM73.78922 -14 L82 -22 L73.78922 -30 L68 -30 L60 -22 L68 -14 L73.78922 -14 zM86 -18 L79 -11 L86 -4 L93 -11 L86 -18 zM20 38 L12 46 L4 38 L4 18 L12 10 L20 18 L20 38 z" />
<glyph unicode="r" horiz-adv-x="58" d="M20 18 L12 10 L4 18 L4 38 L12 46 L20 38 L20 18 zM44 58 L52 50 L44 42 L24 42 L16 50 L24 58 L44 58 z" />
<glyph unicode="s" horiz-adv-x="68" d="M24 42 L16 50 L24 58 L44.11018 57.98862 L52 50 L44.11018 41.98862 L24 42 zM18 -2 L10 6 L18 14 L44 14 L51.88982 6.01138 L44 -2 L18 -2 zM24 20 L16 28 L24 36 L44.11018 35.98862 L52 28 L44.11018 19.98862 L24 20 zM12 32 L5 39 L12 46 L19 39 L12 32 zM55.88024 9.99701 L48.88024 16.99701 L55.88024 23.99701 L62.88024 16.99701 L55.88024 9.99701 z" />
<glyph unicode="t" horiz-adv-x="60.11018" d="M38 62 L30 54 L22 62 L22 74 L30 82 L38 74 L38 62 zM38 18 L30 10 L22 18 L22 38 L30 46 L38 38 L38 18 zM18 58 L26 50 L18 42 L14 42 L6 50 L14 58 L18 58 zM46 58 L54 50 L46 42 L42 42 L34 50 L42 58 L46 58 zM42 -2 L50 6 L42 14 L34 6 L42 -2 z" />
<glyph unicode="u" horiz-adv-x="68" d="M44 14 L52 6 L44 -2 L24 -2 L16 6 L24 14 L44 14 zM20 18 L12 10 L4 18 L4 38 L12 46 L20 38 L20 18 zM64 18 L56 10 L48 18 L48 38 L56 46 L64 38 L64 18 z" />
<glyph unicode="v" horiz-adv-x="78.53429" d="M60.14198 43.54859 L68.33813 45.74474 L70.53429 37.54859 L52.53429 6.37167 L44.33813 4.17552 L42.14198 12.37167 L60.14198 43.54859 zM36.3923 12.73284 L34.19615 4.53669 L26 6.73284 L8 37.90976 L10.19615 46.10591 L18.3923 43.90976 L36.3923 12.73284 z" />
<glyph unicode="w" horiz-adv-x="108.90858" d="M28.90859 17.34847 L24.66595 10 L17.31748 14.24264 L8 49.01597 L12.24264 56.36444 L19.59111 52.1218 L28.90859 17.34847 zM41.31748 52.1218 L48.66595 56.36444 L52.90858 49.01597 L43.5911 14.24264 L36.24263 10 L32 17.34847 L41.31748 52.1218 zM76.90859 17.34847 L72.66595 10 L65.31748 14.24264 L56 49.01597 L60.24264 56.36444 L67.59111 52.1218 L76.90859 17.34847 zM89.31748 52.1218 L96.66595 56.36444 L100.90858 49.01597 L91.5911 14.24264 L84.24263 10 L80 17.34847 L89.31748 52.1218 z" />
<glyph unicode="x" horiz-adv-x="68" d="M31.48728 38.89904 L31.48728 30.41375 L23.002 30.41375 L6.03144 47.38432 L6.03144 55.8696 L14.51672 55.8696 L31.48728 38.89904 zM14.48528 0 L6 0 L6 8.48528 L22.97056 25.45585 L31.45584 25.45585 L31.45584 16.97056 L14.48528 0 zM53.48056 55.9577 L61.96584 55.9577 L61.96584 47.47242 L44.99528 30.50185 L36.51 30.50185 L36.51 38.98714 L53.48056 55.9577 zM36.54144 17.05866 L36.54144 25.54395 L45.02672 25.54395 L61.99728 8.57338 L61.99728 0.0881 L53.512 0.0881 L36.54144 17.05866 z" />
<glyph unicode="y" horiz-adv-x="68" d="M38 14 L46 6 L38 -2 L24 -2 L16 6 L24 14 L38 14 zM20 18 L12 10 L4 18 L4 38 L12 46 L20 38 L20 18 zM64 -10 L56 -18 L48 -10 L48 38 L56 46 L64 38 L64 -10 zM44 -14 L52 -22 L44 -30 L24 -30 L16 -22 L24 -14 L44 -14 z" />
<glyph unicode="z" horiz-adv-x="48" d="M36 12 L42 6 L36 0 L12 0 L6 6 L12 12 L36 12 zM19.73528 15.27208 L11.25 15.27208 L11.25 23.75736 L28.22056 40.72792 L36.70584 40.72792 L36.70584 32.24264 L19.73528 15.27208 zM36 55.98862 L42 49.98862 L36 43.98862 L12 43.98862 L6 49.98862 L12 55.98862 L36 55.98862 z" />
<glyph unicode="{" horiz-adv-x="59.8" d="M22 40 L28 46 L34 40 L34 16 L28 10 L22 16 L22 40 zM18.11018 55.98862 L24.11018 49.98862 L18.11018 43.98862 L12 44 L6 50 L12 56 L18.11018 55.98862 zM22 84.04731 L28 90.04731 L34 84.04731 L34 60.04731 L28 54.04731 L22 60.04731 L22 84.04731 zM53.8 101.46092 L42.48629 90.14721 L34.00101 90.14721 L34.00101 98.63249 L45.31472 109.9462 L53.8 109.9462 L53.8 101.46092 zM34.00101 10.1462 L42.48629 10.1462 L53.8 -1.16751 L53.8 -9.65279 L45.31472 -9.65279 L34.00101 1.66092 L34.00101 10.1462 z" />
<glyph unicode="|" horiz-adv-x="24.01198" d="M20 62.04731 L12 54.04731 L4 62.04731 L3.98802 98.03863 L12 106 L20 98 L20 62.04731 zM20 2 L12 -6 L4 2 L4 38 L12.01198 45.96137 L20.01198 37.96137 L20 2 z" />
<glyph unicode="}" horiz-adv-x="59.8" d="M37.8 16 L31.8 10 L25.8 16 L25.8 40 L31.8 46 L37.8 40 L37.8 16 zM47.8 56 L53.8 50 L47.8 44 L41.68982 43.98862 L35.68982 49.98862 L41.68982 55.98862 L47.8 56 zM37.8 60.04731 L31.8 54.04731 L25.8 60.04731 L25.8 84.04731 L31.8 90.04731 L37.8 84.04731 L37.8 60.04731 zM6 109.9462 L14.48528 109.9462 L25.79899 98.63249 L25.79899 90.14721 L17.31371 90.14721 L6 101.46092 L6 109.9462 zM25.79899 1.66092 L14.48528 -9.65279 L6 -9.65279 L6 -1.16751 L17.31371 10.1462 L25.79899 10.1462 L25.79899 1.66092 z" />
<glyph unicode="~" horiz-adv-x="66.31022" d="M21.55635 49.27396 L14.48528 42.20289 L6 42.20289 L6 50.68817 L13.07107 57.75924 L21.55635 57.75924 L21.55635 49.27396 zM25.40387 57.80006 L33.88915 57.80006 L40.96022 50.72899 L40.96022 42.24371 L32.47494 42.24371 L25.40387 49.31478 L25.40387 57.80006 zM60.31022 49.17107 L53.23915 42.1 L44.75387 42.1 L44.75387 50.58528 L51.82494 57.65635 L60.31022 57.65635 L60.31022 49.17107 z" />
<glyph unicode="¡" horiz-adv-x="24.07241" d="M4.60943 93.06146 Q5.22516 94.51876 6.34353 95.65671 Q7.42982 96.76726 8.93878 97.3908 Q10.39051 97.97532 12.00009 97.99974 Q13.56491 98.01433 15.0614 97.3908 Q16.51292 96.80555 17.65665 95.65671 Q18.77326 94.56052 19.39074 93.06146 Q20.00364 91.6211 19.99968 90.00015 Q20.01363 88.43593 19.39074 86.93884 Q18.8061 85.48593 17.65665 84.34359 Q16.56038 83.22953 15.0614 82.60949 Q13.61954 81.99268 12.00009 82.00057 Q10.44007 81.9914 8.93878 82.60949 Q7.47753 83.18997 6.34353 84.34359 Q5.23954 85.44303 4.60943 86.93884 Q3.98207 88.38132 4.00051 90.00015 Q3.99297 91.6024 4.60943 93.06146 zM4.03616 68.00007 L12.03616 76.00007 L20.03616 68.00007 L20.03616 8.00007 L12.03616 0.00007 L4.03616 8.00007 L4.03616 68.00007 z" />
<glyph unicode="¦" horiz-adv-x="24.01198" d="M20 62.04731 L12 54.04731 L4 62.04731 L3.98802 98.03863 L12 106 L20 98 L20 62.04731 zM20 2 L12 -6 L4 2 L4 38 L12.01198 45.96137 L20.01198 37.96137 L20 2 z" />
<glyph unicode="¿" horiz-adv-x="68" d="M46.14072 62 L38.14072 54 L30.14072 62 L30.14072 72 L38.14072 80 L46.14072 72 L46.14072 62 zM24.14072 42.04731 L15.88982 50.01138 L24.14072 58.04731 L26.14072 58 L34.14072 50 L26.39162 42.03593 L24.14072 42.04731 zM20 17.95269 L12 9.95269 L4 17.95269 L4 37.95269 L12 45.95269 L20 37.95269 L20 17.95269 zM24.14072 -2 L15.88982 5.96407 L24.14072 14 L43.88982 13.96407 L51.88982 5.96407 L44.14072 -2 L24.14072 -2 zM64.14072 18 L56.14072 10 L48.14072 18 L48.14072 20 L56.14072 28 L64.14072 20 L64.14072 18 zM30.71399 95.06139 Q31.32972 96.5187 32.44809 97.65665 Q33.53438 98.7672 35.04334 99.39074 Q36.49507 99.97526 38.10465 99.99967 Q39.66947 100.01427 41.16596 99.39074 Q42.61748 98.80549 43.76121 97.65665 Q44.87782 96.56046 45.4953 95.06139 Q46.1082 93.62104 46.10424 92.00008 Q46.11819 90.43586 45.4953 88.93877 Q44.91066 87.48587 43.76121 86.34353 Q42.66494 85.22947 41.16596 84.60943 Q39.7241 83.99262 38.10465 84.00051 Q36.54463 83.99134 35.04334 84.60943 Q33.58209 85.18991 32.44809 86.34353 Q31.3441 87.44297 30.71399 88.93877 Q30.08663 90.38126 30.10507 92.00008 Q30.09753 93.60234 30.71399 95.06139 z" />
<glyph unicode="Á" horiz-adv-x="68" d="M42 56 L48 50 L42 44 L26 44 L20 50 L26.11018 56.01138 L42 56 zM18 18 L12 12 L6 18 L6 84.04731 L12 90.04731 L18 84.04731 L18 18 zM45.88982 100.03593 L51.88982 94.03593 L45.88982 88.03593 L21.88982 88.03593 L15.88982 94.03593 L21.88982 100.03593 L45.88982 100.03593 zM62 18 L56 12 L50 18 L50 84.04731 L56 90.04731 L62 84.04731 L62 18 zM48.79899 117.31371 L37.48528 106 L29 106 L29 114.48528 L40.31371 125.79899 L48.79899 125.79899 L48.79899 117.31371 z" />
<glyph unicode="É" horiz-adv-x="58" d="M46 12 L52 6 L46 0 L26 0 L20 6 L26 12 L46 12 zM18 8 L12 2 L6 8 L6 92 L12 98 L18 92 L18 8 zM45.88982 100.03593 L51.88982 94.03593 L45.88982 88.03593 L26 88 L20 94 L26 100 L45.88982 100.03593 zM46.1006 56.02096 L52.1006 50.02096 L46.1006 44.02096 L26.21078 43.98503 L20.21078 49.98503 L26.21078 55.98503 L46.1006 56.02096 zM38.79899 117.31371 L27.48528 106 L19 106 L19 114.48528 L30.31371 125.79899 L38.79899 125.79899 L38.79899 117.31371 z" />
<glyph unicode="Í" horiz-adv-x="48.11018" d="M36.11018 12 L42.11018 6 L36.11018 0 L12.11018 0 L6.11018 6 L12.11018 12 L36.11018 12 zM30.11018 20 L24.11018 14 L18.11018 20 L18.0024 79.9491 L24.11018 86 L30.11018 80 L30.11018 20 zM36 100.03593 L42 94.03593 L36 88.03593 L12 88.03593 L6 94.03593 L12 100.03593 L36 100.03593 zM33.8995 117.38128 L22.58579 106.06757 L14.10051 106.06757 L14.10051 114.55285 L25.41422 125.86656 L33.8995 125.86656 L33.8995 117.38128 z" />
<glyph unicode="Ñ" horiz-adv-x="66.53" d="M48.55395 84.03293 L54.53 90 L60.53 84 L60.53 16 L54.53 10 L48.53 16 L48.55395 84.03293 zM6 84 L12 90 L18 84 L18 16 L12 10 L6 16 L6 84 zM22 69.5911 L22 78.07638 L30.48528 78.07638 L44.43688 63.90461 L44.52791 55.54847 L36.03416 55.54 L22 69.5911 zM21.80248 105.01555 L14.73141 97.94448 L6.24613 97.94448 L6.24613 106.42976 L13.3172 113.50083 L21.80248 113.50083 L21.80248 105.01555 zM25.65 113.54165 L34.13528 113.54165 L41.20635 106.47058 L41.20635 97.9853 L32.72107 97.9853 L25.65 105.05637 L25.65 113.54165 zM60.55635 104.91266 L53.48528 97.84159 L45 97.84159 L45 106.32687 L52.07107 113.39794 L60.55635 113.39794 L60.55635 104.91266 z" />
<glyph unicode="Ó" horiz-adv-x="68" d="M46 12 L52 6 L46 0 L22 0 L16 6 L22 12 L46 12 zM18 16 L12 10 L6 16 L6 84.04731 L12 90.04731 L18 84.04731 L18 16 zM46 100 L52 94 L46 88 L22 88 L16 94 L22 100 L46 100 zM62 16 L56 10 L50 16 L50 84.04731 L56 90.04731 L62 84.04731 L62 16 zM43.79899 117.31371 L32.48528 106 L24 106 L24 114.48528 L35.31371 125.79899 L43.79899 125.79899 L43.79899 117.31371 z" />
<glyph unicode="×" horiz-adv-x="57.25483" d="M14.48528 27.37258 L6 27.37258 L6 35.85786 L17.31371 47.17157 L25.79899 47.17157 L25.79899 38.68629 L14.48528 27.37258 zM25.79899 61.31371 L25.79899 52.82843 L17.31371 52.82843 L6 64.14214 L6 72.62742 L14.48528 72.62742 L25.79899 61.31371 zM39.94113 52.82843 L31.45584 52.82843 L31.45584 61.31371 L42.76955 72.62742 L51.25483 72.62742 L51.25483 64.14214 L39.94113 52.82843 zM51.25483 35.85786 L51.25483 27.37258 L42.76955 27.37258 L31.45584 38.68629 L31.45584 47.17157 L39.94113 47.17157 L51.25483 35.85786 z" />
<glyph unicode="Ú" horiz-adv-x="68" d="M46 12 L52 6 L46 0 L22 0 L16 6 L22 12 L46 12 zM62 16 L56 10 L50 16 L50 84.04731 L56 90.04731 L62 84.04731 L62 16 zM18 16 L12 10 L6 16 L6 84.04731 L12 90.04731 L18 84.04731 L18 16 zM43.89949 117.23757 L32.58579 105.92386 L24.10051 105.92386 L24.10051 114.40914 L35.41421 125.72285 L43.89949 125.72285 L43.89949 117.23757 z" />
<glyph unicode="á" horiz-adv-x="68" d="M46 12 L52 6 L46 0 L22 0 L16 6 L22 12 L46 12 zM18 16 L12 10 L6 16 L6 18 L12 24 L18 18 L18 16 zM62.03593 15.95269 L56.03593 9.95269 L50.03593 15.95269 L50.03593 39.95269 L56.03593 45.95269 L62.03593 39.95269 L62.03593 15.95269 zM45.88982 55.98862 L51.88982 49.98862 L45.88982 43.98862 L16 44 L10 50 L16 56 L45.88982 55.98862 zM42 34 L48 28 L42 22 L22 22 L16 28 L22 34 L42 34 zM43.89899 73.41371 L32.58528 62.1 L24.1 62.1 L24.1 70.58528 L35.41371 81.89899 L43.89899 81.89899 L43.89899 73.41371 z" />
<glyph unicode="é" horiz-adv-x="68" d="M22.03593 44 L16.03593 50 L22.03593 56 L46.03593 56 L52.03593 50 L46.03593 44 L22.03593 44 zM50.03593 40 L56.03593 46 L62.03593 40 L62.03593 38 L56.03593 32 L50.03593 38 L50.03593 40 zM6 40.04731 L12 46.04731 L18 40.04731 L18 16.04731 L12 10.04731 L6 16.04731 L6 40.04731 zM22.14611 0.01138 L16.14611 6.01138 L22.14611 12.01138 L52.03593 12 L58.03593 6 L52.03593 0 L22.14611 0.01138 zM26.03593 22 L20.03593 28 L26.03593 34 L46.03593 34 L52.03593 28 L46.03593 22 L26.03593 22 zM43.89899 73.41371 L32.58528 62.1 L24.1 62.1 L24.1 70.58528 L35.41371 81.89899 L43.89899 81.89899 L43.89899 73.41371 z" />
<glyph unicode="í" horiz-adv-x="24.07247" d="M18 16 L12 10 L6 16 L6 40 L12 46 L18 40 L18 16 zM21.89899 73.41371 L10.58528 62.1 L2.1 62.1 L2.1 70.58528 L13.41371 81.89899 L21.89899 81.89899 L21.89899 73.41371 z" />
<glyph unicode="ñ" horiz-adv-x="68" d="M18 16 L12 10 L6 16 L6 40 L12 46 L18 40 L18 16 zM62.03593 15.95269 L56.03593 9.95269 L50.03593 15.95269 L50.03593 39.95269 L56.03593 45.95269 L62.03593 39.95269 L62.03593 15.95269 zM45.88982 55.98862 L51.88982 49.98862 L45.88982 43.98862 L21.88982 43.98862 L15.88982 49.98862 L21.88982 55.98862 L45.88982 55.98862 zM21.55635 77.76269 L14.48528 70.69162 L6 70.69162 L6 79.1769 L13.07107 86.24797 L21.55635 86.24797 L21.55635 77.76269 zM25.40387 86.28879 L33.88915 86.28879 L40.96022 79.21772 L40.96022 70.73244 L32.47494 70.73244 L25.40387 77.80351 L25.40387 86.28879 zM60.31022 77.6598 L53.23915 70.58873 L44.75387 70.58873 L44.75387 79.07401 L51.82494 86.14508 L60.31022 86.14508 L60.31022 77.6598 z" />
<glyph unicode="ó" horiz-adv-x="68" d="M46 12 L52 6 L46 0 L22 0 L16 6 L22 12 L46 12 zM18 16 L12 10 L6 16 L6 40 L12 46 L18 40 L18 16 zM62.03593 15.95269 L56.03593 9.95269 L50.03593 15.95269 L50.03593 39.95269 L56.03593 45.95269 L62.03593 39.95269 L62.03593 15.95269 zM45.88982 55.98862 L51.88982 49.98862 L45.88982 43.98862 L21.88982 43.98862 L15.88982 49.98862 L21.88982 55.98862 L45.88982 55.98862 zM43.89899 73.41371 L32.58528 62.1 L24.1 62.1 L24.1 70.58528 L35.41371 81.89899 L43.89899 81.89899 L43.89899 73.41371 z" />
<glyph unicode="÷" horiz-adv-x="48" d="M31.42673 24.97485 Q30.811 23.51754 29.69263 22.37959 Q28.60634 21.26904 27.09738 20.6455 Q25.64565 20.06098 24.03607 20.03657 Q22.47125 20.02197 20.97476 20.6455 Q19.52324 21.23075 18.37951 22.37959 Q17.2629 23.47578 16.64542 24.97485 Q16.03252 26.4152 16.03648 28.03616 Q16.02253 29.60038 16.64542 31.09747 Q17.23006 32.55037 18.37951 33.69271 Q19.47578 34.80677 20.97476 35.42681 Q22.41662 36.04362 24.03607 36.03573 Q25.59609 36.0449 27.09738 35.42681 Q28.55863 34.84633 29.69263 33.69271 Q30.79662 32.59327 31.42673 31.09747 Q32.05409 29.65498 32.03565 28.03616 Q32.04319 26.4339 31.42673 24.97485 zM31.42673 68.97485 Q30.811 67.51754 29.69263 66.37959 Q28.60634 65.26904 27.09738 64.6455 Q25.64565 64.06098 24.03607 64.03657 Q22.47125 64.02197 20.97476 64.6455 Q19.52324 65.23075 18.37951 66.37959 Q17.2629 67.47578 16.64542 68.97485 Q16.03252 70.4152 16.03648 72.03616 Q16.02253 73.60038 16.64542 75.09747 Q17.23006 76.55037 18.37951 77.69271 Q19.47578 78.80677 20.97476 79.42681 Q22.41662 80.04362 24.03607 80.03573 Q25.59609 80.0449 27.09738 79.42681 Q28.55863 78.84633 29.69263 77.69271 Q30.79662 76.59327 31.42673 75.09747 Q32.05409 73.65498 32.03565 72.03616 Q32.04319 70.4339 31.42673 68.97485 zM34 58 L42 50 L34 42 L14 42 L6 50 L14 58 L34 58 z" />
<glyph unicode="ú" horiz-adv-x="68" d="M46 12 L52 6 L46 0 L22 0 L16 6 L22 12 L46 12 zM18 16 L12 10 L6 16 L6 40 L12 46 L18 40 L18 16 zM62.03593 15.95269 L56.03593 9.95269 L50.03593 15.95269 L50.03593 39.95269 L56.03593 45.95269 L62.03593 39.95269 L62.03593 15.95269 zM43.89899 73.41371 L32.58528 62.1 L24.1 62.1 L24.1 70.58528 L35.41371 81.89899 L43.89899 81.89899 L43.89899 73.41371 z" />
<glyph unicode="Ō" horiz-adv-x="68" d="M46 12 L52 6 L46 0 L22 0 L16 6 L22 12 L46 12 zM18 16 L12 10 L6 16 L6 84.04731 L12 90.04731 L18 84.04731 L18 16 zM46 100 L52 94 L46 88 L22 88 L16 94 L22 100 L46 100 zM62 16 L56 10 L50 16 L50 84.04731 L56 90.04731 L62 84.04731 L62 16 zM46 118 L52 112 L46 106 L22 106 L16 112 L22 118 L46 118 z" />
<glyph unicode="ʻ" horiz-adv-x="31.79899" d="M25.79899 95.31371 L14.48528 84 L6 84 L6 92.48528 L17.31371 103.79899 L25.79899 103.79899 L25.79899 95.31371 zM22 80 L28 74 L22 68 L10 68 L4 74 L10 80 L22 80 z" />
<glyph unicode="‐" horiz-adv-x="48" d="M34 58 L42 50 L34 42 L14 42 L6 50 L14 58 L34 58 z" />
<glyph unicode="‑" horiz-adv-x="48" d="M34 58 L42 50 L34 42 L14 42 L6 50 L14 58 L34 58 z" />
<glyph unicode="‒" horiz-adv-x="68" d="M54 58 L62 50 L54 42 L14 42 L6 50 L14 58 L54 58 z" />
<glyph unicode="–" horiz-adv-x="74" d="M60 58 L68 50 L60 42 L14 42 L6 50 L14 58 L60 58 z" />
<glyph unicode="—" horiz-adv-x="80" d="M72 58 L80 50 L72 42 L8 42 L0 50 L8 58 L72 58 z" />
<glyph unicode="‘" horiz-adv-x="31.79899" d="M6 103.79899 L14.48528 103.79899 L25.79899 92.48528 L25.79899 84 L17.31371 84 L6 95.31371 L6 103.79899 z" />
<glyph unicode="’" horiz-adv-x="31.79899" d="M25.79899 95.31371 L14.48528 84 L6 84 L6 92.48528 L17.31371 103.79899 L25.79899 103.79899 L25.79899 95.31371 z" />
<glyph unicode="“" horiz-adv-x="55.59899" d="M29.8 103.79899 L38.28528 103.79899 L49.59899 92.48528 L49.59899 84 L41.11371 84 L29.8 95.31371 L29.8 103.79899 zM6 103.79899 L14.48528 103.79899 L25.79899 92.48528 L25.79899 84 L17.31371 84 L6 95.31371 L6 103.79899 z" />
<glyph unicode="”" horiz-adv-x="55.59899" d="M25.79899 95.31371 L14.48528 84 L6 84 L6 92.48528 L17.31371 103.79899 L25.79899 103.79899 L25.79899 95.31371 zM49.59899 95.31371 L38.28528 84 L29.8 84 L29.8 92.48528 L41.11371 103.79899 L49.59899 103.79899 L49.59899 95.31371 z" />
<glyph unicode="‼" horiz-adv-x="44.07241" d="M19.42673 4.93861 Q18.811 3.48131 17.69263 2.34336 Q16.60634 1.23281 15.09738 0.60927 Q13.64565 0.02475 12.03607 0.00033 Q10.47125 -0.01426 8.97476 0.60927 Q7.52324 1.19452 6.37951 2.34336 Q5.2629 3.43955 4.64542 4.93861 Q4.03252 6.37897 4.03648 7.99992 Q4.02253 9.56414 4.64542 11.06123 Q5.23006 12.51414 6.37951 13.65648 Q7.47578 14.77054 8.97476 15.39058 Q10.41662 16.00739 12.03607 15.9995 Q13.59609 16.00867 15.09738 15.39058 Q16.55863 14.8101 17.69263 13.65648 Q18.79662 12.55704 19.42673 11.06123 Q20.05409 9.61875 20.03565 7.99992 Q20.04319 6.39767 19.42673 4.93861 zM20 30 L12 22 L4 30 L4 90 L12 98 L20 90 L20 30 zM39.42673 4.93861 Q38.811 3.48131 37.69263 2.34336 Q36.60634 1.23281 35.09738 0.60927 Q33.64565 0.02475 32.03607 0.00033 Q30.47125 -0.01426 28.97476 0.60927 Q27.52324 1.19452 26.37951 2.34336 Q25.2629 3.43955 24.64542 4.93861 Q24.03252 6.37897 24.03648 7.99992 Q24.02253 9.56414 24.64542 11.06123 Q25.23006 12.51414 26.37951 13.65648 Q27.47578 14.77054 28.97476 15.39058 Q30.41662 16.00739 32.03607 15.9995 Q33.59609 16.00867 35.09738 15.39058 Q36.55863 14.8101 37.69263 13.65648 Q38.79662 12.55704 39.42673 11.06123 Q40.05409 9.61875 40.03565 7.99992 Q40.04319 6.39767 39.42673 4.93861 zM40 30 L32 22 L24 30 L24 90 L32 98 L40 90 L40 30 z" />
<glyph unicode="⁈" horiz-adv-x="88.07241" d="M83.42673 4.93861 Q82.811 3.48131 81.69263 2.34336 Q80.60634 1.23281 79.09738 0.60927 Q77.64565 0.02475 76.03607 0.00033 Q74.47125 -0.01426 72.97476 0.60927 Q71.52324 1.19452 70.37951 2.34336 Q69.2629 3.43955 68.64542 4.93861 Q68.03252 6.37897 68.03648 7.99992 Q68.02253 9.56414 68.64542 11.06123 Q69.23006 12.51414 70.37951 13.65648 Q71.47578 14.77054 72.97476 15.39058 Q74.41662 16.00739 76.03607 15.9995 Q77.59609 16.00867 79.09738 15.39058 Q80.55863 14.8101 81.69263 13.65648 Q82.79662 12.55704 83.42673 11.06123 Q84.05409 9.61875 84.03565 7.99992 Q84.04319 6.39767 83.42673 4.93861 zM84 30 L76 22 L68 30 L68 90 L76 98 L84 90 L84 30 zM22 38 L30 46 L38 38 L38 28 L30 20 L22 28 L22 38 zM44 57.95269 L52.2509 49.98862 L44 41.95269 L42 42 L34 50 L41.7491 57.96407 L44 57.95269 zM48.14072 82.04731 L56.14072 90.04731 L64.14072 82.04731 L64.14072 62.04731 L56.14072 54.04731 L48.14072 62.04731 L48.14072 82.04731 zM44 102 L52.2509 94.03593 L44 86 L24.2509 86.03593 L16.2509 94.03593 L24 102 L44 102 zM4 82 L12 90 L20 82 L20 80 L12 72 L4 80 L4 82 zM37.42673 4.93861 Q36.811 3.4813 35.69263 2.34335 Q34.60634 1.2328 33.09738 0.60926 Q31.64565 0.02474 30.03607 0.00033 Q28.47125 -0.01427 26.97476 0.60926 Q25.52324 1.19451 24.37951 2.34335 Q23.2629 3.43954 22.64542 4.93861 Q22.03252 6.37896 22.03648 7.99992 Q22.02253 9.56414 22.64542 11.06123 Q23.23006 12.51413 24.37951 13.65647 Q25.47578 14.77053 26.97476 15.39057 Q28.41662 16.00738 30.03607 15.99949 Q31.59609 16.00866 33.09738 15.39057 Q34.55863 14.81009 35.69263 13.65647 Q36.79662 12.55703 37.42673 11.06123 Q38.05409 9.61874 38.03565 7.99992 Q38.04319 6.39766 37.42673 4.93861 z" />
<glyph unicode="⁉" horiz-adv-x="88.14099" d="M42 38 L50 46 L58 38 L58 28 L50 20 L42 28 L42 38 zM64 57.95269 L72.2509 49.98862 L64 41.95269 L62 42 L54 50 L61.7491 57.96407 L64 57.95269 zM68.14072 82.04731 L76.14072 90.04731 L84.14072 82.04731 L84.14072 62.04731 L76.14072 54.04731 L68.14072 62.04731 L68.14072 82.04731 zM64 102 L72.2509 94.03593 L64 86 L44.2509 86.03593 L36.2509 94.03593 L44 102 L64 102 zM24 82 L32 90 L40 82 L40 80 L32 72 L24 80 L24 82 zM57.42673 4.93861 Q56.811 3.4813 55.69263 2.34335 Q54.60634 1.2328 53.09738 0.60926 Q51.64565 0.02474 50.03607 0.00033 Q48.47125 -0.01427 46.97476 0.60926 Q45.52324 1.19451 44.37951 2.34335 Q43.2629 3.43954 42.64542 4.93861 Q42.03252 6.37896 42.03648 7.99992 Q42.02253 9.56414 42.64542 11.06123 Q43.23006 12.51413 44.37951 13.65647 Q45.47578 14.77053 46.97476 15.39057 Q48.41662 16.00738 50.03607 15.99949 Q51.59609 16.00866 53.09738 15.39057 Q54.55863 14.81009 55.69263 13.65647 Q56.79662 12.55703 57.42673 11.06123 Q58.05409 9.61874 58.03565 7.99992 Q58.04319 6.39766 57.42673 4.93861 zM19.42673 4.93558 Q18.811 3.47828 17.69263 2.34033 Q16.60634 1.22978 15.09738 0.60624 Q13.64565 0.02172 12.03607 -0.0027 Q10.47125 -0.01729 8.97476 0.60624 Q7.52324 1.19149 6.37951 2.34033 Q5.2629 3.43652 4.64542 4.93558 Q4.03252 6.37594 4.03648 7.99689 Q4.02253 9.56111 4.64542 11.0582 Q5.23006 12.51111 6.37951 13.65345 Q7.47578 14.76751 8.97476 15.38755 Q10.41662 16.00436 12.03607 15.99647 Q13.59609 16.00564 15.09738 15.38755 Q16.55863 14.80707 17.69263 13.65345 Q18.79662 12.55401 19.42673 11.0582 Q20.05409 9.61572 20.03565 7.99689 Q20.04319 6.39464 19.42673 4.93558 zM20 29.99697 L12 21.99697 L4 29.99697 L4 89.99697 L12 97.99697 L20 89.99697 L20 29.99697 z" />
<glyph unicode="▒" horiz-adv-x="108.18204" d="M27.88982 15.96407 L36.14611 8 L27.88982 -0.03593 L23.88982 -0.03593 L16.03593 8.03593 L23.88982 15.96407 L27.88982 15.96407 zM19.85389 20.01138 L12.03593 12.03593 L4 19.90538 L3.85389 24.01138 L12 32.08324 L19.96407 23.95269 L19.85389 20.01138 zM47.88982 19.96407 L40.07186 11.98862 L32.03593 19.85807 L31.88982 23.96407 L40.03593 32.03593 L48 23.90538 L47.88982 19.96407 zM27.77964 44 L36.03593 36.03593 L27.77964 28 L23.77964 28 L15.92575 36.07186 L23.77964 44 L27.77964 44 zM19.85389 48.106 L12.03593 40.13055 L4 48 L3.85389 52.106 L12 60.17786 L19.96407 52.04731 L19.85389 48.106 zM47.88982 48.05869 L40.07186 40.08324 L32.03593 47.95269 L31.88982 52.05869 L40.03593 60.13055 L48 52 L47.88982 48.05869 zM27.77964 72 L36.03593 64.03593 L27.77964 56 L23.77964 56 L15.92575 64.07186 L23.77964 72 L27.77964 72 zM19.88982 76.05869 L12.07186 68.08324 L4.03593 75.95269 L3.88982 80.05869 L12.03593 88.13055 L20 80 L19.88982 76.05869 zM47.92575 76.01138 L40.10779 68.03593 L32.07186 75.90538 L31.92575 80.01138 L40.07186 88.08324 L48.03593 79.95269 L47.92575 76.01138 zM27.81557 99.95269 L36.07186 91.98862 L27.81557 83.95269 L23.81557 83.95269 L15.96168 92.02455 L23.81557 99.95269 L27.81557 99.95269 zM55.92575 99.98862 L64.18204 92.02455 L55.92575 83.98862 L51.92575 83.98862 L44.07186 92.06048 L51.92575 99.98862 L55.92575 99.98862 zM55.88982 72.03593 L64.14611 64.07186 L55.88982 56.03593 L51.88982 56.03593 L44.03593 64.10779 L51.88982 72.03593 L55.88982 72.03593 zM55.88982 44.03593 L64.14611 36.07186 L55.88982 28.03593 L51.88982 28.03593 L44.03593 36.10779 L51.88982 44.03593 L55.88982 44.03593 zM56 16 L64.25629 8.03593 L56 0 L52 0 L44.14611 8.07186 L52 16 L56 16 zM76 20 L68.18204 12.02455 L60.14611 19.894 L60 24 L68.14611 32.07186 L76.11018 23.94131 L76 20 zM76 48.09462 L68.18204 40.11917 L60.14611 47.98862 L60 52.09462 L68.14611 60.16648 L76.11018 52.03593 L76 48.09462 zM76.03593 76.04731 L68.21797 68.07186 L60.18204 75.94131 L60.03593 80.04731 L68.18204 88.11917 L76.14611 79.98862 L76.03593 76.04731 zM83.92575 99.98862 L92.18204 92.02455 L83.92575 83.98862 L79.92575 83.98862 L72.07186 92.06048 L79.92575 99.98862 L83.92575 99.98862 zM83.88982 72.03593 L92.14611 64.07186 L83.88982 56.03593 L79.88982 56.03593 L72.03593 64.10779 L79.88982 72.03593 L83.88982 72.03593 zM83.88982 44.03593 L92.14611 36.07186 L83.88982 28.03593 L79.88982 28.03593 L72.03593 36.10779 L79.88982 44.03593 L83.88982 44.03593 zM84 16 L92.25629 8.03593 L84 0 L80 0 L72.14611 8.07186 L80 16 L84 16 zM104 20 L96.18204 12.02455 L88.14611 19.894 L88 24 L96.14611 32.07186 L104.11018 23.94131 L104 20 zM104 48.09462 L96.18204 40.11917 L88.14611 47.98862 L88 52.09462 L96.14611 60.16648 L104.11018 52.03593 L104 48.09462 zM104.03593 76.04731 L96.21797 68.07186 L88.18204 75.94131 L88.03593 80.04731 L96.18204 88.11917 L104.14611 79.98862 L104.03593 76.04731 z" />
<glyph unicode="➗" horiz-adv-x="76" d="M51.20308 5.47963 Q50.10844 2.88886 48.12023 0.86584 Q46.18905 -1.10847 43.50645 -2.21699 Q40.9256 -3.25613 38.06412 -3.29953 Q35.28222 -3.32549 32.6218 -2.21699 Q30.04132 -1.17654 28.00802 0.86584 Q26.02293 2.81462 24.92519 5.47963 Q23.83559 8.04026 23.84263 10.92196 Q23.81783 13.7028 24.92519 16.36429 Q25.96455 18.94723 28.00802 20.97805 Q29.95694 22.9586 32.6218 24.0609 Q35.1851 25.15745 38.06412 25.14342 Q40.83749 25.15972 43.50645 24.0609 Q46.10423 23.02893 48.12023 20.97805 Q50.08288 19.02349 51.20308 16.36429 Q52.31838 13.79987 52.2856 10.92196 Q52.299 8.0735 51.20308 5.47963 zM51.20308 83.70186 Q50.10844 81.11108 48.12023 79.08806 Q46.18905 77.11375 43.50645 76.00523 Q40.9256 74.96609 38.06412 74.92269 Q35.28222 74.89674 32.6218 76.00523 Q30.04132 77.04568 28.00802 79.08806 Q26.02293 81.03684 24.92519 83.70186 Q23.83559 86.26248 23.84263 89.14419 Q23.81783 91.92502 24.92519 94.58651 Q25.96455 97.16945 28.00802 99.20027 Q29.95694 101.18083 32.6218 102.28312 Q35.1851 103.37967 38.06412 103.36564 Q40.83749 103.38195 43.50645 102.28312 Q46.10423 101.25115 48.12023 99.20027 Q50.08288 97.24571 51.20308 94.58651 Q52.31838 92.02209 52.2856 89.14419 Q52.299 86.29572 51.20308 83.70186 zM55.77778 64.19101 L70 49.96879 L55.77778 35.74657 L20.22222 35.74657 L6 49.96879 L20.22222 64.19101 L55.77778 64.19101 z" />
</font>
</svg>
